<?xml version="1.0" encoding="utf-8"?>
<!-- Generator: Adobe Illustrator 21.0.0, SVG Export Plug-In . SVG Version: 6.00 Build 0)  -->
<svg version="1.1" id="Capa_1" xmlns="http://www.w3.org/2000/svg" xmlns:xlink="http://www.w3.org/1999/xlink" x="0px" y="0px"
	 viewBox="0 0 600 600" style="enable-background:new 0 0 600 600;" xml:space="preserve">
<style type="text/css">
	.st0{fill:#06506B;}
	.st1{fill:#FFFFFF;}
</style>
<g>
	<path class="st0" d="M191.6,568h213.2c87.7,0,159.4-71.7,159.4-159.4V195.4c0-87.7-71.7-159.4-159.4-159.4H191.6
		C104,36,32.3,107.7,32.3,195.4v213.2C32.3,496.3,104,568,191.6,568z"/>
	<g>
		<path class="st1" d="M105.2,196.4c0.2-0.5,0.5-0.9,0.6-1.4c4.7-24.6,23.3-40,48.3-40c96.3,0,192.5,0,288.8,0
			c27.7,0,48.4,20.7,48.4,48.3c0,65.7,0,131.5,0,197.2c0,27.6-20.8,48.3-48.4,48.4c-14.3,0-28.7,0-43,0c-82.1,0-164.1,0-246.2,0
			c-16.7,0-30.1-6.8-40-20.3c-4.6-6.3-6.7-13.6-8.5-21.1C105.2,337.2,105.2,266.8,105.2,196.4z M443,427.3
			c13.1,0,23.1-7.6,25.9-19.7c0.6-2.5,0.7-5.2,0.7-7.9c0-65.1,0-130.2,0-195.3c0-17.1-10.6-27.6-27.8-27.6c-95.8,0-191.5,0-287.3,0
			c-17.2,0-27.7,10.5-27.7,27.7c0,65.7,0,131.5,0,197.2c0,14.7,11.2,25.6,26.3,25.6c48.5,0,97,0,145.5,0
			C346.8,427.3,394.9,427.3,443,427.3z"/>
		<path class="st1" d="M247.8,299.5c-7.8,7.4-15.3,14.6-22.8,21.7C202,343,179,364.8,156,386.6c-1,1-2,1.9-3,2.9
			c-4.3,4.5-4.5,10.9-0.4,15.3c4,4.3,10.6,4.7,15.2,0.3c9-8.4,17.9-16.9,26.8-25.4c22.3-21.2,44.6-42.4,67-63.6
			c0.7-0.7,1.5-1.3,2.4-2.1c8.4,7.5,16.7,15,25.1,22.4c6.6,5.9,11.5,5.8,18.1-0.1c7.9-7.1,15.9-14.2,24.1-21.5
			c1.6,1.5,3.2,2.8,4.7,4.3c30.1,28.1,60.2,56.3,90.3,84.5c2.7,2.5,5.5,4.5,9.3,4.3c4.5-0.2,7.9-2.4,9.7-6.6c1.7-4.2,1-8.2-2.2-11.5
			c-3.8-3.8-7.8-7.5-11.8-11.2c-27.1-25.3-54.1-50.7-81.2-76c-0.7-0.7-1.6-1.2-2.7-2.1c1.5-1.5,2.7-2.6,3.8-3.6
			c30-26.8,59.9-53.6,90-80.3c3.6-3.2,6.3-6.6,5.3-11.7c-1.6-8.4-11.2-11.8-17.8-6.1c-8.6,7.3-16.9,15-25.3,22.5
			c-34.3,30.7-68.5,61.3-102.8,92c-0.8,0.7-1.7,1.4-2.7,2.2c-19.9-17.8-39.6-35.5-59.3-53.2c-23.3-20.9-46.5-41.8-69.9-62.7
			c-7.2-6.4-17-3.6-18.7,5.3c-0.9,4.7,1.3,8.2,4.7,11.2c15.3,13.6,30.5,27.3,45.8,41C216.1,271.1,231.7,285.1,247.8,299.5z"/>
	</g>
</g>
</svg>
