<?xml version="1.0" encoding="utf-8"?>
<!-- Generator: Adobe Illustrator 21.0.0, SVG Export Plug-In . SVG Version: 6.00 Build 0)  -->
<svg version="1.1" id="Capa_1" xmlns="http://www.w3.org/2000/svg" xmlns:xlink="http://www.w3.org/1999/xlink" x="0px" y="0px"
	 viewBox="0 0 792 89" style="enable-background:new 0 0 792 89;" xml:space="preserve">
<style type="text/css">
	.st0{fill:#5C5B5F;}
	.st1{font-family:'MyriadPro-It';}
	.st2{font-size:7.9772px;}
	.st3{fill:#61AA88;}
	.st4{fill:#FFFFFF;}
	.st5{fill:#2F516A;}
	.st6{fill:#2E516B;}
	.st7{fill:#A1A1A1;}
	.st8{font-family:'MyriadPro-Semibold';}
	.st9{font-size:8px;}
	.st10{font-family:'MyriadPro-Regular';}
	.st11{fill:#2E516A;}
	.st12{fill:#7D7D7F;}
</style>
<g>
	<g>
		<g>
			<text transform="matrix(1 0 0 1 299.7175 57.4366)" class="st0 st1 st2">@syfclinic.dom</text>
			<g>
				<path class="st3" d="M289.3,61.7h-3.3c-2.8,0-5-2.3-5-5v-3.3c0-2.8,2.3-5,5-5h3.3c2.8,0,5,2.3,5,5v3.3
					C294.3,59.5,292.1,61.7,289.3,61.7z"/>
				<g>
					<path class="st4" d="M290.1,59.9c-1.6,0-3.2,0-4.8,0c0,0-0.1,0-0.1,0c-1.3-0.2-2.3-1.3-2.3-2.7c0-1.4,0-2.8,0-4.3
						c0-0.2,0-0.4,0-0.5c0.3-1.3,1.3-2.1,2.6-2.2c1.4,0,2.9,0,4.3,0c0.1,0,0.2,0,0.3,0c1.3,0.1,2.4,1.3,2.4,2.6c0,1.5,0,3,0,4.4
						c0,1.2-0.8,2.2-1.9,2.5C290.4,59.9,290.2,59.9,290.1,59.9z M291.7,55.1c0-0.7,0-1.4,0-2.1c0-0.1,0-0.2,0-0.3
						c-0.1-0.9-0.9-1.6-1.8-1.6c-1.4,0-2.8,0-4.3,0c-0.2,0-0.3,0-0.5,0.1c-0.7,0.2-1.3,0.9-1.3,1.8c0,1.4,0,2.8,0,4.2
						c0,0.2,0,0.3,0.1,0.5c0.2,0.8,0.9,1.3,1.8,1.3c1.4,0,2.9,0,4.3,0c0.2,0,0.3,0,0.5-0.1c0.8-0.2,1.3-0.9,1.3-1.8
						C291.7,56.5,291.7,55.8,291.7,55.1z"/>
					<path class="st4" d="M287.7,52.6c1.4,0,2.5,1.1,2.5,2.5c0,1.4-1.1,2.5-2.5,2.5c-1.4,0-2.5-1.1-2.5-2.5
						C285.2,53.7,286.3,52.6,287.7,52.6z M286.1,55.1c0,0.9,0.7,1.6,1.6,1.6c0.9,0,1.6-0.7,1.6-1.6c0-0.9-0.7-1.6-1.6-1.6
						C286.8,53.5,286.1,54.2,286.1,55.1z"/>
					
						<ellipse transform="matrix(1.317666e-03 -1 1 1.317666e-03 237.3929 342.7314)" class="st4" cx="290.3" cy="52.5" rx="0.6" ry="0.6"/>
				</g>
			</g>
		</g>
		<g>
			<text transform="matrix(1 0 0 1 299.7178 41.1124)" class="st0 st1 st2">info@syfdominicana.com</text>
			<g>
				<path class="st5" d="M286.1,45.4h3.3c2.8,0,5-2.3,5-5v-3.3c0-2.8-2.3-5-5-5h-3.3c-2.8,0-5,2.3-5,5v3.3
					C281.1,43.2,283.3,45.4,286.1,45.4z"/>
				<g>
					<path class="st4" d="M282.9,36.1C282.9,36.1,282.9,36.1,282.9,36.1c0.1-0.6,0.6-1,1.2-1c2.4,0,4.8,0,7.2,0
						c0.7,0,1.2,0.5,1.2,1.2c0,1.6,0,3.3,0,4.9c0,0.7-0.5,1.2-1.2,1.2c-0.4,0-0.7,0-1.1,0c-2,0-4.1,0-6.1,0c-0.4,0-0.8-0.2-1-0.5
						c-0.1-0.2-0.2-0.3-0.2-0.5C282.9,39.6,282.9,37.9,282.9,36.1z M291.3,41.9c0.3,0,0.6-0.2,0.6-0.5c0-0.1,0-0.1,0-0.2
						c0-1.6,0-3.2,0-4.9c0-0.4-0.3-0.7-0.7-0.7c-2.4,0-4.8,0-7.2,0c-0.4,0-0.7,0.3-0.7,0.7c0,1.6,0,3.3,0,4.9c0,0.4,0.3,0.6,0.7,0.6
						c1.2,0,2.4,0,3.6,0C288.9,41.9,290.1,41.9,291.3,41.9z"/>
					<path class="st4" d="M286.4,38.7c-0.2,0.2-0.4,0.4-0.6,0.5c-0.6,0.5-1.1,1.1-1.7,1.6c0,0-0.1,0-0.1,0.1c-0.1,0.1-0.1,0.3,0,0.4
						c0.1,0.1,0.3,0.1,0.4,0c0.2-0.2,0.4-0.4,0.7-0.6c0.6-0.5,1.1-1.1,1.7-1.6c0,0,0,0,0.1-0.1c0.2,0.2,0.4,0.4,0.6,0.6
						c0.2,0.1,0.3,0.1,0.5,0c0.2-0.2,0.4-0.4,0.6-0.5c0,0,0.1,0.1,0.1,0.1c0.8,0.7,1.5,1.4,2.3,2.1c0.1,0.1,0.1,0.1,0.2,0.1
						c0.1,0,0.2-0.1,0.2-0.2c0-0.1,0-0.2-0.1-0.3c-0.1-0.1-0.2-0.2-0.3-0.3c-0.7-0.6-1.4-1.3-2-1.9c0,0,0,0-0.1-0.1
						c0,0,0.1-0.1,0.1-0.1c0.7-0.7,1.5-1.3,2.2-2c0.1-0.1,0.2-0.2,0.1-0.3c0-0.2-0.3-0.3-0.4-0.2c-0.2,0.2-0.4,0.4-0.6,0.6
						c-0.9,0.8-1.7,1.5-2.6,2.3c0,0,0,0-0.1,0.1c-0.5-0.4-1-0.9-1.5-1.3c-0.6-0.5-1.2-1-1.7-1.6c-0.2-0.2-0.4-0.1-0.5,0.1
						c0,0.1,0,0.2,0.1,0.3c0.4,0.3,0.8,0.7,1.1,1C285.7,38,286,38.4,286.4,38.7z"/>
				</g>
			</g>
		</g>
		<path class="st6" d="M0.1,0v68.9C6.6,64.1,13.7,58,14,54.3V0H0.1z"/>
		<g>
			<text transform="matrix(1 0 0 1 299.7178 24.4375)" class="st0 st1 st2">www.syfdominicana.com</text>
			<g>
				<path class="st7" d="M286.1,28.7h3.3c2.8,0,5-2.3,5-5v-3.3c0-2.8-2.3-5-5-5h-3.3c-2.8,0-5,2.3-5,5v3.3
					C281.1,26.5,283.3,28.7,286.1,28.7z"/>
				<g>
					<path class="st4" d="M287,26.9c-1.6-0.3-2.8-1.1-3.6-2.6c-0.3-0.6-0.5-1.2-0.5-1.8c-0.1-1.5,0.4-2.8,1.4-3.8
						c0.8-0.8,1.8-1.3,3-1.4c1.6-0.1,2.9,0.4,3.9,1.5c0.8,0.8,1.2,1.8,1.3,2.9c0.1,1.4-0.3,2.6-1.2,3.6c-0.8,0.9-1.8,1.4-3,1.5
						c-0.1,0-0.2,0-0.3,0c-0.2,0-0.4,0-0.6,0C287.2,26.9,287.1,26.9,287,26.9z M289.9,21.8C289.9,21.7,289.9,21.7,289.9,21.8
						c0-0.4-0.1-0.8-0.1-1.2c0,0,0-0.1-0.1-0.1c-0.6,0-1.1,0-1.7,0c0,0,0,0,0,0c0,0.4,0,0.8,0,1.3C288.7,21.8,289.3,21.8,289.9,21.8
						z M288,22.4c0,0.4,0,0.8,0,1.3c0,0,0.1,0,0.1,0c0.5,0,1,0,1.6,0c0.1,0,0.1,0,0.1-0.1c0-0.4,0.1-0.8,0.1-1.1c0,0,0,0,0-0.1
						C289.3,22.4,288.7,22.4,288,22.4z M287.4,21.8c0-0.4,0-0.8,0-1.3c0,0-0.1,0-0.1,0c-0.5,0-1,0-1.6,0c-0.1,0-0.1,0-0.1,0.1
						c-0.1,0.4-0.1,0.8-0.1,1.2C286.1,21.8,286.7,21.8,287.4,21.8z M285.6,23.5c0,0.2,0,0.2,0.3,0.2c0.5,0,0.9,0,1.4,0
						c0,0,0.1,0,0.1,0c0-0.4,0-0.8,0-1.3c-0.6,0-1.3,0-1.9,0C285.5,22.8,285.5,23.1,285.6,23.5z M288.7,25.9
						c0.4-0.4,0.7-0.9,0.9-1.5c-0.5,0-1,0-1.6,0c0,0.6,0,1.2,0,1.9C288.3,26.2,288.5,26,288.7,25.9z M285.8,24.3
						C285.8,24.4,285.8,24.4,285.8,24.3c0.2,0.6,0.4,1,0.8,1.4c0.2,0.2,0.4,0.3,0.6,0.4c0,0,0.1,0,0.1,0c0-0.6,0-1.2,0-1.9
						C286.9,24.3,286.3,24.3,285.8,24.3z M289.6,19.8C289.6,19.8,289.6,19.8,289.6,19.8c-0.2-0.6-0.4-1.1-0.8-1.5
						c-0.2-0.2-0.5-0.4-0.7-0.4c0,0.6,0,1.2,0,1.9C288.5,19.8,289.1,19.8,289.6,19.8z M286.7,18.4c-0.4,0.4-0.7,0.9-0.8,1.4
						c0,0,0,0,0,0c0.5,0,1,0,1.6,0c0-0.6,0-1.2,0-1.9C287.1,18,286.9,18.2,286.7,18.4z M290.6,21.8c0.4,0,0.8,0,1.3,0
						c0-0.1,0-0.2,0-0.2c0-0.3-0.1-0.7-0.3-1c0,0,0-0.1-0.1-0.1c-0.3,0-0.7,0-1,0c0,0,0,0,0,0C290.5,20.9,290.6,21.3,290.6,21.8z
						 M291.3,23.7c0.2,0,0.2,0,0.3-0.2c0.1-0.3,0.1-0.6,0.2-0.9c0,0,0-0.1,0-0.1c-0.4,0-0.8,0-1.3,0c-0.1,0.4-0.1,0.8-0.2,1.3
						C290.7,23.7,291,23.7,291.3,23.7z M284.8,21.8c0.1-0.4,0.1-0.8,0.2-1.3c0,0-0.1,0-0.1,0c-0.3,0-0.6,0-0.9,0c0,0-0.1,0-0.1,0.1
						c-0.1,0.4-0.2,0.8-0.3,1.2c0,0,0,0,0,0.1C284,21.8,284.4,21.8,284.8,21.8z M283.7,23.3c0,0.1,0.1,0.2,0.1,0.4
						c0,0,0,0.1,0.1,0.1c0.4,0,0.7,0,1.1,0c0,0,0,0,0,0c-0.1-0.4-0.1-0.8-0.2-1.3c-0.4,0-0.8,0-1.3,0
						C283.6,22.7,283.6,23,283.7,23.3z M289.8,18.8c0.1,0.3,0.3,0.6,0.4,0.9c0,0.1,0.1,0.1,0.1,0.1c0.2,0,0.5,0,0.7,0
						c0,0,0.1,0,0.1,0c-0.4-0.7-1-1.1-1.7-1.5C289.6,18.5,289.8,18.7,289.8,18.8z M285.8,25.7c-0.3-0.4-0.4-0.8-0.6-1.2
						c0-0.1-0.1-0.1-0.1-0.1c-0.3,0-0.5,0-0.8,0c0,0-0.1,0-0.1,0c0.1,0.4,1.2,1.4,1.7,1.5C285.8,25.8,285.8,25.7,285.8,25.7z
						 M284.2,19.8c0,0,0.1,0,0.1,0c0.2,0,0.5,0,0.7,0c0.1,0,0.1,0,0.1-0.1c0.1-0.4,0.3-0.8,0.6-1.2c0-0.1,0.1-0.1,0.1-0.2
						C285.2,18.7,284.6,19.2,284.2,19.8z M291.2,24.4C291.2,24.3,291.2,24.3,291.2,24.4c-0.3,0-0.6,0-0.9,0c-0.1,0-0.1,0-0.1,0.1
						c-0.2,0.5-0.4,1-0.7,1.4c0,0,0,0,0,0C290.2,25.5,290.8,25,291.2,24.4z"/>
				</g>
			</g>
		</g>
		<g>
			<text transform="matrix(1 0 0 1 178.8622 24.4374)"><tspan x="0" y="0" class="st3 st8 st9">Consultorios:</tspan><tspan x="45.7" y="0" class="st0 st8 st9"> </tspan><tspan x="-14.1" y="9.6" class="st0 st10 st9">Calle Pdte González #4</tspan></text>
		</g>
		<g>
			<text transform="matrix(1 0 0 1 189.2177 45.4032)"><tspan x="0" y="0" class="st3 st8 st9">Clínica:</tspan><tspan x="25" y="0" class="st0 st8 st9"> </tspan><tspan x="-36.8" y="9.6" class="st0 st10 st9">Calle El Vergel #27.  C.P. 10107</tspan></text>
		</g>
		<g>
			<text transform="matrix(1 0 0 1 153.8903 67.4345)" class="st0 st8 st9">Santo Domingo  - Rep. Dom.</text>
		</g>
		<g>
			<g>
				<path class="st5" d="M286.6,78.1h3.3c2.8,0,5-2.3,5-5v-3.3c0-2.8-2.3-5-5-5h-3.3c-2.8,0-5,2.3-5,5v3.3
					C281.6,75.8,283.8,78.1,286.6,78.1z"/>
				<g>
					<path class="st4" d="M285.2,67.9c0,0-0.6,4.5,3,8.4l2.2,0l0.3-0.2l-1.4-2.1l-0.7,0.2l-1.8-4.8l0.7-0.5l-0.3-2.5h-0.3
						L285.2,67.9z"/>
					<polygon class="st4" points="287.7,66.5 287.9,68.9 288.4,68.7 288.3,66.5 					"/>
					<polygon class="st4" points="289.6,73.9 291.1,75.9 291.5,75.5 290.2,73.6 					"/>
				</g>
			</g>
		</g>
		<g>
			<text transform="matrix(1 0 0 1 299.5854 73.7587)" class="st0 st1 st2">+1 (786) 544 43 16</text>
		</g>
	</g>
	<g>
		<g>
			<g>
				<g>
					<g>
						<g>
							<path class="st11" d="M68.3,32.2L68.3,32.2c0.3,0,0.5,0.2,0.5,0.4c1,3.1,3.1,4.9,6.1,4.9c2.6,0,4.5-1.6,4.5-3.8
								c0-5.1-11.3-7.1-11.3-13.5c0-3.2,2.7-5.3,6.6-5.3c1.2,0,2,0.1,2.8,0.3c0.7,0.1,1.3,0.3,1.9,0.3c0.4,0,0.6-0.1,0.8-0.3
								c0.1-0.1,0.3-0.2,0.5-0.2l0,0c0.4,0,0.6,0.3,0.7,0.6l0.6,4.4c0.1,0.4-0.2,0.7-0.6,0.7l0,0c-0.2,0-0.5-0.2-0.5-0.4
								C79.6,17.6,77.5,16,75,16c-2.3,0-3.5,1.4-3.5,3c0,4.9,11.3,6.4,11.3,13.4c0,3.8-3.1,6.3-7.7,6.3c-2.7,0-3.8-0.7-4.8-0.7
								c-0.3,0-0.6,0.1-0.8,0.3c-0.1,0.1-0.3,0.2-0.4,0.2l0,0c-0.3,0-0.6-0.3-0.7-0.6l-0.7-5.1C67.6,32.5,67.9,32.2,68.3,32.2z"/>
							<g>
								<path class="st11" d="M121.4,34.3c0,2.8,0.4,3.5,2.7,3.6c0.3,0,0.5,0.2,0.5,0.5v0c0,0.3-0.2,0.5-0.5,0.5H115
									c-0.3,0-0.5-0.2-0.5-0.5v0c0-0.3,0.2-0.5,0.5-0.5c2-0.1,2.4-1.1,2.4-2.9V19.3c0-1.9-0.6-2.6-2.4-2.7c-0.3,0-0.5-0.2-0.5-0.5
									l0,0c0-0.3,0.2-0.5,0.5-0.5h16.4c0.4,0,0.7,0.3,0.7,0.7v3.5c0,0.3-0.2,0.5-0.5,0.5l0,0c-0.3,0-0.5-0.2-0.5-0.5
									c-0.2-2.1-1-2.5-3.8-2.5h-5.8v8.3h5.8c2.1,0,2.7-0.3,2.9-2c0-0.3,0.3-0.5,0.5-0.5h0c0.3,0,0.5,0.2,0.5,0.5v5.9
									c0,0.3-0.2,0.5-0.5,0.5h0c-0.3,0-0.5-0.2-0.5-0.5c-0.3-1.9-0.9-2.4-3.1-2.4h-5.6V34.3z"/>
							</g>
							<path class="st3" d="M113,37.8c-0.1-0.2-0.2-0.2-0.4-0.2c-1.5,0.1-3.1-0.1-4.7-0.6l0,0c-1.1-0.4-2.2-0.9-3.2-1.6
								c-0.6-0.4-1.1-0.8-1.6-1.2c1.9-2.4,2.9-5.2,2.9-7.6c0-0.2-0.2-0.4-0.4-0.4c-1.4-0.3-2.7-0.4-4-0.3c-0.2,0-0.2,0.2,0,0.3
								c0.4,0.2,0.9,0.4,1.3,0.6c0.5,0.3,0.8,0.8,0.9,1.4c0.2,1.8-0.5,3.7-1.7,5.3c-3.9-3-7.3-6.6-10.3-10.5
								c-0.2-0.2-0.3-0.4-0.4-0.6c-1-2-0.2-4.5,1.9-5.6c2.1-1.1,4.6-0.3,5.6,1.7c0.4,0.7,0.5,1.5,0.4,2.2c0,0.2,0.3,0.3,0.3,0.1
								c0.7-1.6,0.8-3.2,0.2-4.7c0-0.1,0-0.1-0.1-0.2c-0.1-0.2-0.2-0.3-0.4-0.3c-2.4-0.7-5.2-0.5-7.6,0.4c-1,0.4-1.9,0.9-2.6,1.7
								c-0.6,0.8-1,1.7-1.2,2.7c0,0.2,0,0.4,0,0.7c0,1.6,0.7,3,1.8,4c-2.8,1.8-5.1,5-4.4,8.4c0.4,2,1.9,3.4,3.7,4.2
								c2,0.9,4.3,1.1,6.4,0.7c1.1-0.2,2.1-0.5,3.1-0.9c0.5-0.2,1-0.4,1.4-0.7c0.1-0.1,1.4-0.9,1.4-0.9c0.8,0.6,1.7,1.2,2.6,1.7
								c2.2,1.4,5.5,1.8,8.8,0.9C113,38.3,113.1,38,113,37.8z M100.2,35c-0.2,0.1-0.3,0.3-0.5,0.4c-0.4,0.3-0.9,0.6-1.4,0.8
								c-0.1,0.1-0.2,0.1-0.3,0.2c-3.4,1.5-7.1,0.9-9-1.7c-1.5-2.2-1.3-5.2,0.3-7.6c0,0,0,0,0,0c0.3-0.4,0.6-0.8,1-1.2
								C93.3,29.2,96.6,32.4,100.2,35z"/>
						</g>
					</g>
				</g>
			</g>
		</g>
		<g>
			<path class="st11" d="M57.3,33.1c0,0.3,0,0.7,0,1c0,1.2-0.1,2.4-0.4,3.5c0.2-0.1,0.5-0.1,0.7-0.1c1.2,0,2.1,0.9,2.1,2.1h5.1
				L57.3,33.1z"/>
			<path class="st12" d="M46.3,30c-0.2-0.9-0.5-1.7-0.8-2.5c-0.1-0.2-0.1-0.3-0.2-0.5c-0.8-2-1.3-4.3-1.3-6.6c0-1.8,0.3-3.5,0.8-5.2
				h0l0,0c0.1-0.3,0.2-0.7,0.4-1h-8.5c-0.1,0.3-0.2,0.6-0.4,1l0,0h0c-0.3,0.9-0.5,1.8-0.6,2.7c-0.1,0.8-0.2,1.7-0.2,2.5
				c0,2.4,0.5,4.6,1.3,6.7c0,0.1,0.1,0.2,0.1,0.2c0.9,2.1,1.3,4.3,1.3,6.7c0,1.3-0.1,2.5-0.4,3.7L46.3,30z"/>
			<path class="st11" d="M56.3,34.1c0-2.3-0.5-4.6-1.3-6.6c-0.1-0.2-0.1-0.3-0.2-0.5c-0.8-2-1.3-4.3-1.3-6.6c0-1.8,0.3-3.5,0.8-5.2
				h0l0,0c0.1-0.3,0.2-0.7,0.4-1l-8.5,0c-0.1,0.3-0.2,0.6-0.4,1h0c-0.3,0.9-0.5,1.8-0.6,2.7c-0.1,0.8-0.2,1.7-0.2,2.5
				c0,2.4,0.5,4.6,1.3,6.7c0,0.1,0.1,0.2,0.1,0.2c0.4,1,0.7,2,0.9,3l-10,9.2h5.3c0,0,0,0,0,0c0-1.2,0.9-2.1,2.1-2.1
				c1.2,0,2.1,0.9,2.1,2.1c0,0,0,0,0,0h0h8.5h0l0,0c0.3-0.9,0.5-1.9,0.7-2.9C56.3,35.8,56.3,35,56.3,34.1z"/>
			<path class="st3" d="M64.5,27.5c-0.1-0.2-0.1-0.3-0.2-0.5c-0.8-2-1.3-4.3-1.3-6.6c0-1.8,0.3-3.5,0.8-5.2h0l0,0
				c0.1-0.3,0.2-0.7,0.4-1l-8.5,0c-0.1,0.3-0.2,0.6-0.4,1h0c-0.3,0.9-0.5,1.8-0.6,2.7c-0.1,0.8-0.2,1.7-0.2,2.5
				c0,2.4,0.5,4.6,1.3,6.7c0,0.1,0.1,0.2,0.1,0.2c0.6,1.4,1,2.8,1.2,4.3l8.1,6.9c0.2-0.6,0.3-1.3,0.4-1.9c0.1-0.8,0.2-1.7,0.2-2.5
				C65.8,31.8,65.4,29.5,64.5,27.5z"/>
		</g>
		<g>
			<path class="st11" d="M35.8,50.3L35.8,50.3c0.1,0,0.2,0.1,0.2,0.2c0.4,1.2,1.3,1.9,2.4,1.9c1,0,1.8-0.6,1.8-1.5
				c0-2-4.5-2.9-4.5-5.4c0-1.3,1.1-2.1,2.6-2.1c0.5,0,0.8,0.1,1.1,0.1c0.3,0.1,0.5,0.1,0.8,0.1c0.1,0,0.2,0,0.3-0.1
				c0.1,0,0.1-0.1,0.2-0.1l0,0c0.1,0,0.3,0.1,0.3,0.2l0.2,1.7c0,0.1-0.1,0.3-0.2,0.3h0c-0.1,0-0.2-0.1-0.2-0.2
				c-0.4-1.1-1.3-1.7-2.3-1.7c-0.9,0-1.4,0.6-1.4,1.2c0,2,4.5,2.5,4.5,5.4c0,1.5-1.2,2.5-3.1,2.5c-1.1,0-1.5-0.3-1.9-0.3
				c-0.1,0-0.2,0-0.3,0.1c0,0-0.1,0.1-0.2,0.1l0,0c-0.1,0-0.3-0.1-0.3-0.2l-0.3-2C35.6,50.5,35.7,50.3,35.8,50.3z"/>
			<path class="st11" d="M44.1,44.8h3.2c0.1,0,0.2,0.1,0.2,0.2v0c0,0.1-0.1,0.2-0.2,0.2c-0.7,0-0.9,0.3-0.9,1.1v5
				c0,0.9,0.2,1.2,0.9,1.2c0.1,0,0.2,0.1,0.2,0.2l0,0c0,0.1-0.1,0.2-0.2,0.2h-3.2c-0.1,0-0.2-0.1-0.2-0.2l0,0c0-0.1,0.1-0.2,0.2-0.2
				c0.8,0,0.9-0.4,0.9-1.1v-5.2c0-0.6-0.1-0.9-0.9-1c-0.1,0-0.2-0.1-0.2-0.2v0C43.9,44.9,44,44.8,44.1,44.8z"/>
			<path class="st11" d="M52.1,44.9l5.5,5.9v-4.6c0-0.9-0.1-1.1-1.1-1.1c-0.1,0-0.2-0.1-0.2-0.2l0,0c0-0.1,0.1-0.2,0.2-0.2h2.7
				c0.1,0,0.2,0.1,0.2,0.2v0c0,0.1-0.1,0.2-0.2,0.2c-0.7,0-0.9,0.2-0.9,1.1v6.1c0,0.3-0.2,0.5-0.5,0.5l0,0c-0.1,0-0.3-0.1-0.3-0.2
				l-6-6.4v4.9c0,0.9,0.1,1.3,1.1,1.3c0.1,0,0.2,0.1,0.2,0.2l0,0c0,0.1-0.1,0.2-0.2,0.2h-2.7c-0.1,0-0.2-0.1-0.2-0.2l0,0
				c0-0.1,0.1-0.2,0.2-0.2c0.8,0,0.9-0.3,0.9-1.1v-6.1c0-0.2,0.2-0.4,0.4-0.4h0.6C51.9,44.8,52,44.8,52.1,44.9z"/>
			<path class="st11" d="M61.8,44.8H65c0.1,0,0.2,0.1,0.2,0.2l0,0c0,0.1-0.1,0.2-0.2,0.2c-0.8,0-0.9,0.3-0.9,1.1v3.4
				c0,1.7,1.1,2.5,2.7,2.5c1.4,0,2.7-0.6,2.7-2.5v-3.4c0-0.9-0.2-1.1-1-1.1c-0.1,0-0.2-0.1-0.2-0.2l0,0c0-0.1,0.1-0.2,0.2-0.2h2.7
				c0.1,0,0.2,0.1,0.2,0.2v0c0,0.1-0.1,0.2-0.2,0.2c-0.8,0-1,0.3-1,1.1v3.6c0,2-1.5,3.2-3.8,3.2c-2.4,0-3.7-1.2-3.7-3.2v-3.6
				c0-0.7-0.2-0.9-0.9-1c-0.1,0-0.2-0.1-0.2-0.2v0C61.6,44.9,61.7,44.8,61.8,44.8z"/>
			<path class="st11" d="M73.3,50.6L73.3,50.6c0.1,0,0.2,0.1,0.2,0.1c0.3,1.1,1.1,1.7,2.1,1.7c0.9,0,1.6-0.6,1.6-1.3
				c0-1.8-4-2.5-4-4.7c0-1.1,1-1.9,2.3-1.9c0.4,0,0.7,0.1,1,0.1c0.3,0.1,0.5,0.1,0.7,0.1c0.1,0,0.2,0,0.3-0.1c0,0,0.1-0.1,0.1-0.1
				h0.1c0.1,0,0.2,0.1,0.2,0.2l0.2,1.6c0,0.1-0.1,0.2-0.2,0.2h0c-0.1,0-0.2-0.1-0.2-0.1c-0.4-0.9-1.1-1.5-2-1.5
				c-0.8,0-1.2,0.5-1.2,1c0,1.7,4,2.2,4,4.7c0,1.3-1.1,2.2-2.7,2.2c-0.9,0-1.3-0.2-1.7-0.2c-0.1,0-0.2,0-0.3,0.1c0,0-0.1,0-0.1,0h0
				c-0.1,0-0.2-0.1-0.2-0.2l-0.3-1.8C73.1,50.7,73.2,50.6,73.3,50.6z"/>
			<path class="st11" d="M97.3,50.9c0,1.1,0.2,1.4,1.1,1.4c0.1,0,0.2,0.1,0.2,0.2l0,0c0,0.1-0.1,0.2-0.2,0.2h-3.7
				c-0.1,0-0.2-0.1-0.2-0.2v0c0-0.1,0.1-0.2,0.2-0.2c0.8,0,0.9-0.4,0.9-1.2v-6.3c0-0.8-0.2-1.1-0.9-1.1c-0.1,0-0.2-0.1-0.2-0.2l0,0
				c0-0.1,0.1-0.2,0.2-0.2h6.5c0.2,0,0.3,0.1,0.3,0.3v1.4c0,0.1-0.1,0.2-0.2,0.2l0,0c-0.1,0-0.2-0.1-0.2-0.2c-0.1-0.8-0.4-1-1.5-1
				h-2.3v3.3h2.3c0.8,0,1.1-0.1,1.2-0.8c0-0.1,0.1-0.2,0.2-0.2h0c0.1,0,0.2,0.1,0.2,0.2V49c0,0.1-0.1,0.2-0.2,0.2h0
				c-0.1,0-0.2-0.1-0.2-0.2c-0.1-0.8-0.4-0.9-1.2-0.9h-2.2V50.9z"/>
			<path class="st11" d="M108.2,44.8c0.1,0,0.3,0.1,0.3,0.2l2.3,6.3c0.3,0.9,0.5,1.1,1.1,1.1c0.1,0,0.2,0.1,0.2,0.2v0
				c0,0.1-0.1,0.2-0.2,0.2h-3.3c-0.1,0-0.2-0.1-0.2-0.2l0,0c0-0.1,0.1-0.2,0.2-0.2c0.8,0,1.1-0.1,1.1-0.5c0-0.1,0-0.3-0.2-0.7
				l-0.6-1.6h-2.8l-0.6,1.7c-0.1,0.2-0.1,0.4-0.1,0.5c0,0.3,0.2,0.5,1.1,0.5c0.1,0,0.2,0.1,0.2,0.2l0,0c0,0.1-0.1,0.2-0.2,0.2h-2.7
				c-0.1,0-0.2-0.1-0.2-0.2v0c0-0.1,0.1-0.2,0.2-0.2c0.7,0,0.8-0.2,1.2-1.1l2.2-6.3c0-0.1,0.2-0.2,0.3-0.2H108.2z M108.7,49.1
				l-1.2-3.2l-1.2,3.2H108.7z"/>
			<path class="st11" d="M121.7,52.6c0,0.1-0.1,0.1-0.2,0.1c-0.1,0-0.2,0-0.3,0c-0.6,0-1.4,0.3-2.4,0.3c-2.9,0-4.4-1.7-4.4-3.9
				c0-2.1,1.4-4.2,4.5-4.2c1.3,0,2.3,0.4,2.6,0.4c0.1,0,0.1,0,0.2-0.1c0,0,0.1,0,0.1,0h0c0.1,0,0.2,0.1,0.2,0.2l0,1.6
				c0,0.1-0.1,0.2-0.2,0.2l0,0c-0.1,0-0.2-0.1-0.2-0.1c-0.5-1.2-1.4-1.8-2.8-1.8c-1.8,0-3.1,1.4-3.1,3.5c0,2.2,1.4,3.8,3.3,3.8
				c1.2,0,2.2-0.6,2.9-1.8c0-0.1,0.1-0.1,0.2-0.1l0,0c0.1,0,0.2,0.1,0.2,0.3L121.7,52.6z"/>
			<path class="st11" d="M125,52.6L125,52.6c0-0.1,0.1-0.2,0.2-0.2c0.9,0,1.1-0.2,1.1-0.9V46c0-0.8-0.4-0.9-1.1-0.9
				c-0.1,0-0.2-0.1-0.2-0.2l0,0c0-0.1,0.1-0.2,0.2-0.2h6c0.2,0,0.3,0.1,0.3,0.3l0.1,1.4c0,0.1-0.1,0.2-0.2,0.2h0
				c-0.1,0-0.2-0.1-0.2-0.1l0-0.1c-0.3-1.1-0.5-1.1-1.3-1.1h-2.2v3h2c0.7,0,0.9-0.1,0.9-0.8c0-0.1,0.1-0.2,0.2-0.2l0,0
				c0.1,0,0.2,0.1,0.2,0.2v2.2c0,0.1-0.1,0.2-0.2,0.2h0c-0.1,0-0.2-0.1-0.2-0.2c-0.1-0.8-0.3-0.9-0.9-0.9h-2v2.3
				c0,0.8,0.1,0.9,0.7,0.9h1.4c1.2,0,1.5-0.2,1.8-1.3c0-0.1,0.1-0.1,0.2-0.1l0,0c0.1,0,0.2,0.1,0.2,0.2l-0.1,1.5
				c0,0.2-0.2,0.3-0.3,0.3h-6.4C125.1,52.8,125,52.7,125,52.6z"/>
			<path class="st3" d="M92.2,52.4c0-0.1-0.1-0.1-0.2-0.1c-0.6,0-1.2,0-1.9-0.2l0,0c-0.5-0.1-0.9-0.4-1.3-0.6
				c-0.2-0.2-0.4-0.3-0.7-0.5c0.8-0.9,1.2-2.1,1.1-3c0-0.1-0.1-0.2-0.1-0.2c-0.5-0.1-1.1-0.2-1.6-0.1c-0.1,0-0.1,0.1,0,0.1
				c0.2,0.1,0.3,0.2,0.5,0.2c0.2,0.1,0.3,0.3,0.4,0.5c0.1,0.7-0.2,1.5-0.7,2.1c-1.5-1.2-2.9-2.6-4.1-4.2c-0.1-0.1-0.1-0.2-0.2-0.3
				c-0.4-0.8-0.1-1.8,0.8-2.2c0.8-0.4,1.8-0.1,2.2,0.7c0.1,0.3,0.2,0.6,0.2,0.9c0,0.1,0.1,0.1,0.1,0c0.3-0.6,0.3-1.3,0.1-1.9
				c0,0,0-0.1,0-0.1c0-0.1-0.1-0.1-0.1-0.1c-1-0.3-2.1-0.2-3,0.2c-0.4,0.2-0.8,0.4-1,0.7c-0.3,0.3-0.4,0.7-0.5,1.1
				c0,0.1,0,0.2,0,0.3c0,0.6,0.3,1.2,0.7,1.6c-1.1,0.7-2,2-1.8,3.4c0.2,0.8,0.8,1.4,1.5,1.7c0.8,0.4,1.7,0.4,2.6,0.3
				c0.4-0.1,0.8-0.2,1.2-0.4c0.2-0.1,0.4-0.2,0.6-0.3c0.1,0,0.5-0.4,0.6-0.3c0.3,0.2,0.7,0.5,1,0.7c0.9,0.6,2.2,0.7,3.5,0.3
				C92.2,52.6,92.3,52.5,92.2,52.4z M87.1,51.3c-0.1,0.1-0.1,0.1-0.2,0.2c-0.2,0.1-0.4,0.2-0.5,0.3c0,0-0.1,0-0.1,0.1
				c-1.4,0.6-2.9,0.3-3.6-0.7c-0.6-0.9-0.5-2.1,0.1-3.1c0,0,0,0,0,0c0.1-0.2,0.3-0.3,0.4-0.5C84.4,49,85.7,50.2,87.1,51.3z"/>
		</g>
		<g>
			<g>
				<path class="st12" d="M39.4,63.6c-0.1,0-0.1-0.1-0.2-0.1c-0.3,0-0.8,0.2-1.5,0.2c-1.7,0-2.6-1-2.6-2.3c0-1.2,0.8-2.5,2.7-2.5
					c0.8,0,1.4,0.2,1.6,0.2c0.1,0,0.1,0,0.1-0.1h0.2l0,1.2h-0.2c-0.3-0.8-0.9-1.2-1.7-1.2c-1.1,0-1.8,0.8-1.8,2.1
					c0,1.3,0.8,2.2,2,2.2c0.7,0,1.4-0.4,1.8-1.1h0.2L39.4,63.6z"/>
				<path class="st12" d="M41.6,63.6v-0.2c0.6,0,0.7-0.1,0.7-0.6v-2.9c0-0.5-0.1-0.6-0.7-0.6V59H44v0.2c-0.8,0-0.9,0-0.9,0.6v3.1
					c0,0.3,0.1,0.4,0.4,0.4h0.8c0.6,0,0.7,0,1.2-0.8h0.2l-0.6,1.1H41.6z"/>
				<path class="st12" d="M47.2,59h2v0.2c-0.5,0-0.6,0.1-0.6,0.6v2.8c0,0.5,0.1,0.7,0.6,0.7v0.2h-2v-0.2c0.6,0,0.6-0.2,0.6-0.6v-3
					c0-0.4-0.1-0.6-0.6-0.5V59z M47.8,58.5l0.3-1.1h0.8l-1,1.1H47.8z"/>
				<path class="st12" d="M52.1,59.8v2.8c0,0.6,0.1,0.8,0.7,0.7v0.2h-1.7v-0.2c0.5,0,0.6-0.2,0.6-0.6v-3.3c-0.2-0.2-0.3-0.2-0.6-0.2
					V59h1.3l3.3,3.4v-2.6c0-0.5-0.1-0.6-0.7-0.6V59h1.8v0.2c-0.5,0-0.6,0.1-0.6,0.6v3.8h-0.4L52.1,59.8z"/>
				<path class="st12" d="M58.5,59h2v0.2c-0.5,0-0.6,0.1-0.6,0.6v2.8c0,0.5,0.1,0.7,0.6,0.7v0.2h-2v-0.2c0.6,0,0.6-0.2,0.6-0.6v-3
					c0-0.4-0.1-0.6-0.6-0.5V59z"/>
				<path class="st12" d="M66.8,63.6c-0.1,0-0.1-0.1-0.2-0.1c-0.3,0-0.8,0.2-1.5,0.2c-1.7,0-2.6-1-2.6-2.3c0-1.2,0.8-2.5,2.7-2.5
					c0.8,0,1.4,0.2,1.6,0.2c0.1,0,0.1,0,0.1-0.1H67l0,1.2h-0.2c-0.3-0.8-0.9-1.2-1.7-1.2c-1.1,0-1.8,0.8-1.8,2.1
					c0,1.3,0.8,2.2,2,2.2c0.7,0,1.4-0.4,1.8-1.1h0.2L66.8,63.6z"/>
				<path class="st12" d="M68.8,63.4c0.5,0,0.6-0.1,0.8-0.7l1.3-3.6l-0.1-0.2h0.8l1.4,3.8c0.2,0.6,0.3,0.7,0.7,0.7v0.2h-2.2v-0.2
					c0.6,0,0.7-0.1,0.7-0.3c0-0.1,0-0.2-0.1-0.4L72,61.8h-1.7l-0.4,1c-0.1,0.1-0.1,0.2-0.1,0.3c0,0.2,0.1,0.3,0.7,0.3v0.2h-1.8V63.4
					z M71.9,61.4l-0.7-1.9l-0.7,1.9H71.9z"/>
				<path class="st12" d="M82.4,63.4c0.5,0,0.6-0.1,0.8-0.7l1.3-3.6l-0.1-0.2h0.8l1.4,3.8c0.2,0.6,0.3,0.7,0.7,0.7v0.2h-2.2v-0.2
					c0.6,0,0.7-0.1,0.7-0.3c0-0.1,0-0.2-0.1-0.4l-0.4-0.9h-1.7l-0.4,1c-0.1,0.1-0.1,0.2-0.1,0.3c0,0.2,0.1,0.3,0.7,0.3v0.2h-1.8
					V63.4z M85.4,61.4l-0.7-1.9L84,61.4H85.4z"/>
				<path class="st12" d="M93.2,63.6c-0.1,0-0.1-0.1-0.2-0.1c-0.3,0-0.8,0.2-1.5,0.2c-1.7,0-2.6-1-2.6-2.3c0-1.2,0.8-2.5,2.7-2.5
					c0.8,0,1.4,0.2,1.6,0.2c0.1,0,0.1,0,0.1-0.1h0.2l0,1.2h-0.2c-0.3-0.8-0.9-1.2-1.7-1.2c-1.1,0-1.8,0.8-1.8,2.1
					c0,1.3,0.8,2.2,2,2.2c0.7,0,1.4-0.4,1.8-1.1h0.2L93.2,63.6z"/>
				<path class="st12" d="M95.3,63.4c0.5,0,0.6-0.1,0.8-0.7l1.3-3.6l-0.1-0.2h0.8l1.4,3.8c0.2,0.6,0.3,0.7,0.7,0.7v0.2h-2.2v-0.2
					c0.6,0,0.7-0.1,0.7-0.3c0-0.1,0-0.2-0.1-0.4l-0.4-0.9h-1.7l-0.4,1c-0.1,0.1-0.1,0.2-0.1,0.3c0,0.2,0.1,0.3,0.7,0.3v0.2h-1.8
					V63.4z M98.3,61.4l-0.7-1.9l-0.7,1.9H98.3z"/>
				<path class="st12" d="M102.6,59.8c0-0.5-0.1-0.7-0.7-0.6V59c0.2,0,0.8,0,1.1,0c0.4,0,0.8,0,1,0c1.1,0,1.9,0.2,2.3,0.6
					c0.5,0.5,0.6,1,0.6,1.6c0,1.1-0.8,2.4-2.9,2.4h-2.3v-0.2c0.6,0,0.7-0.1,0.7-0.6V59.8z M103.4,62.8c0,0.5,0.1,0.5,0.5,0.5
					c0.9,0,1.3-0.2,1.7-0.5c0.4-0.4,0.6-1.1,0.6-1.6c0-0.5-0.1-1.1-0.6-1.6c-0.4-0.4-0.8-0.5-1.7-0.5c-0.1,0-0.4,0-0.5,0V62.8z"/>
				<path class="st12" d="M108.9,63.6v-0.2c0.6,0,0.7-0.1,0.7-0.5v-3.2c0-0.5-0.2-0.5-0.7-0.5V59h3.7l0.1,1.1h-0.2l0-0.2
					c-0.1-0.6-0.3-0.6-0.7-0.6h-1.3V61h1.1c0.4,0,0.5-0.1,0.5-0.6h0.2V62h-0.2c-0.1-0.5-0.1-0.6-0.5-0.6h-1.1v1.3
					c0,0.5,0.1,0.5,0.4,0.5h0.8c0.7,0,0.9-0.1,1.1-0.8h0.2l-0.1,1.1H108.9z"/>
				<path class="st12" d="M114.5,63.4c0.5,0,0.6-0.1,0.6-0.7l0.2-2.7c0-0.7,0-0.7-0.5-0.7V59h1.4l1.6,3.4l1.5-3.4h1.4v0.2
					c-0.4,0-0.5,0.1-0.5,0.4l0.3,3.3c0,0.4,0.2,0.4,0.6,0.4v0.2H119v-0.2c0.6,0,0.7-0.1,0.6-0.9l-0.2-2.7h0l-1.7,3.8h-0.2l-1.7-3.7
					h0l-0.2,2.7c-0.1,0.8,0.1,0.8,0.6,0.8v0.2h-1.6V63.4z"/>
				<path class="st12" d="M122.8,59h2v0.2c-0.5,0-0.6,0.1-0.6,0.6v2.8c0,0.5,0.1,0.7,0.6,0.7v0.2h-2v-0.2c0.6,0,0.6-0.2,0.6-0.6v-3
					c0-0.4-0.1-0.6-0.6-0.5V59z"/>
				<path class="st12" d="M126.5,63.4c0.5,0,0.6-0.1,0.8-0.7l1.3-3.6l-0.1-0.2h0.8l1.4,3.8c0.2,0.6,0.3,0.7,0.7,0.7v0.2h-2.2v-0.2
					c0.6,0,0.7-0.1,0.7-0.3c0-0.1,0-0.2-0.1-0.4l-0.4-0.9H128l-0.4,1c-0.1,0.1-0.1,0.2-0.1,0.3c0,0.2,0.1,0.3,0.7,0.3v0.2h-1.8V63.4
					z M129.5,61.4l-0.7-1.9l-0.7,1.9H129.5z"/>
			</g>
		</g>
		<g>
			<g>
				<path class="st12" d="M56.4,70.5c0,0.6,0.1,0.7,0.6,0.7v0.2h-2v-0.2c0.5,0,0.6-0.2,0.6-0.6v-3.1c0-0.4-0.1-0.5-0.6-0.5v-0.2h3.5
					v0.9h-0.2c0-0.5-0.2-0.6-0.8-0.6h-1.1v1.6h1.1c0.4,0,0.5-0.1,0.6-0.5h0.2v1.3h-0.2c-0.1-0.5-0.2-0.5-0.6-0.5h-1.1V70.5z"/>
				<path class="st12" d="M60.2,66.8h2.1V67c-0.5,0-0.6,0.1-0.6,0.6v2c0,1,0.7,1.4,1.6,1.4c0.8,0,1.6-0.4,1.6-1.4v-2
					c0-0.6-0.1-0.6-0.7-0.6v-0.2h1.8V67c-0.6,0-0.7,0.1-0.7,0.6v2c0,1.1-0.9,1.8-2.2,1.8c-1.4,0-2.1-0.7-2.1-1.9v-2.1
					c0-0.4-0.1-0.6-0.6-0.6V66.8z"/>
				<path class="st12" d="M68.5,67.7v2.8c0,0.6,0.1,0.8,0.7,0.7v0.2h-1.7v-0.2c0.5,0,0.6-0.2,0.6-0.6v-3.3c-0.2-0.2-0.3-0.2-0.6-0.2
					v-0.2h1.3l3.3,3.4v-2.6c0-0.5-0.1-0.6-0.7-0.6v-0.2h1.8V67c-0.5,0-0.6,0.1-0.6,0.6v3.8h-0.4L68.5,67.7z"/>
				<path class="st12" d="M75.5,67.7c0-0.5-0.1-0.7-0.7-0.6v-0.2c0.2,0,0.8,0,1.1,0c0.4,0,0.8,0,1,0c1.1,0,1.9,0.2,2.3,0.6
					c0.5,0.5,0.6,1,0.6,1.6c0,1.1-0.8,2.4-2.9,2.4h-2.3v-0.2c0.6,0,0.7-0.1,0.7-0.6V67.7z M76.3,70.7c0,0.5,0.1,0.5,0.5,0.5
					c0.9,0,1.3-0.2,1.7-0.5c0.4-0.4,0.6-1.1,0.6-1.6c0-0.5-0.1-1.1-0.6-1.6c-0.4-0.4-0.8-0.5-1.7-0.5c-0.1,0-0.4,0-0.5,0V70.7z"/>
				<path class="st12" d="M81.4,71.2c0.5,0,0.6-0.1,0.8-0.7l1.3-3.6l-0.1-0.2h0.8l1.4,3.8c0.2,0.6,0.3,0.7,0.7,0.7v0.2h-2.2v-0.2
					c0.6,0,0.7-0.1,0.7-0.3c0-0.1,0-0.2-0.1-0.4l-0.4-0.9h-1.7l-0.4,1c-0.1,0.1-0.1,0.2-0.1,0.3c0,0.2,0.1,0.3,0.7,0.3v0.2h-1.8
					V71.2z M84.4,69.3l-0.7-1.9L83,69.3H84.4z"/>
				<path class="st12" d="M92.2,71.4c-0.1,0-0.1-0.1-0.2-0.1c-0.3,0-0.8,0.2-1.5,0.2c-1.7,0-2.6-1-2.6-2.3c0-1.2,0.8-2.5,2.7-2.5
					c0.8,0,1.4,0.2,1.6,0.2c0.1,0,0.1,0,0.1-0.1h0.2l0,1.2h-0.2c-0.3-0.8-0.9-1.2-1.7-1.2c-1.1,0-1.8,0.8-1.8,2.1
					c0,1.3,0.8,2.2,2,2.2c0.7,0,1.4-0.4,1.8-1.1h0.2L92.2,71.4z"/>
				<path class="st12" d="M94.5,66.8h2V67c-0.5,0-0.6,0.1-0.6,0.6v2.8c0,0.5,0.1,0.7,0.6,0.7v0.2h-2v-0.2c0.6,0,0.6-0.2,0.6-0.6v-3
					c0-0.4-0.1-0.6-0.6-0.5V66.8z"/>
				<path class="st12" d="M101.2,66.7c1.6,0,2.7,0.9,2.7,2.3c0,1.3-1.1,2.5-2.7,2.5c-1.5,0-2.6-1-2.6-2.3
					C98.5,67.8,99.6,66.7,101.2,66.7z M101.2,71.3c1,0,1.7-0.8,1.7-2.1c0-1.3-0.8-2.3-1.8-2.3c-1.1,0-1.7,0.8-1.7,2.1
					C99.4,70.5,100.3,71.3,101.2,71.3z M100.7,66.3l0.3-1.1h0.8l-1,1.1H100.7z"/>
				<path class="st12" d="M106.8,67.7v2.8c0,0.6,0.1,0.8,0.7,0.7v0.2h-1.7v-0.2c0.5,0,0.6-0.2,0.6-0.6v-3.3
					c-0.2-0.2-0.3-0.2-0.6-0.2v-0.2h1.3l3.3,3.4v-2.6c0-0.5-0.1-0.6-0.7-0.6v-0.2h1.8V67c-0.5,0-0.6,0.1-0.6,0.6v3.8h-0.4
					L106.8,67.7z"/>
			</g>
		</g>
		<rect x="77.3" y="61.4" class="st12" width="1.6" height="0.5"/>
	</g>
</g>
<g>
	<g>
		<g>
			<text transform="matrix(1 0 0 1 695.5811 57.4366)" class="st0 st1 st2">@syfclinic.dom</text>
			<g>
				<path class="st3" d="M685.2,61.7h-3.3c-2.8,0-5-2.3-5-5v-3.3c0-2.8,2.3-5,5-5h3.3c2.8,0,5,2.3,5,5v3.3
					C690.2,59.5,688,61.7,685.2,61.7z"/>
				<g>
					<path class="st4" d="M686,59.9c-1.6,0-3.2,0-4.8,0c0,0-0.1,0-0.1,0c-1.3-0.2-2.3-1.3-2.3-2.7c0-1.4,0-2.8,0-4.3
						c0-0.2,0-0.4,0-0.5c0.3-1.3,1.3-2.1,2.6-2.2c1.4,0,2.9,0,4.3,0c0.1,0,0.2,0,0.3,0c1.3,0.1,2.4,1.3,2.4,2.6c0,1.5,0,3,0,4.4
						c0,1.2-0.8,2.2-1.9,2.5C686.3,59.9,686.1,59.9,686,59.9z M687.5,55.1c0-0.7,0-1.4,0-2.1c0-0.1,0-0.2,0-0.3
						c-0.1-0.9-0.9-1.6-1.8-1.6c-1.4,0-2.8,0-4.3,0c-0.2,0-0.3,0-0.5,0.1c-0.7,0.2-1.3,0.9-1.3,1.8c0,1.4,0,2.8,0,4.2
						c0,0.2,0,0.3,0.1,0.5c0.2,0.8,0.9,1.3,1.8,1.3c1.4,0,2.9,0,4.3,0c0.2,0,0.3,0,0.5-0.1c0.8-0.2,1.3-0.9,1.3-1.8
						C687.5,56.5,687.5,55.8,687.5,55.1z"/>
					<path class="st4" d="M683.6,52.6c1.4,0,2.5,1.1,2.5,2.5c0,1.4-1.1,2.5-2.5,2.5c-1.4,0-2.5-1.1-2.5-2.5
						C681.1,53.7,682.2,52.6,683.6,52.6z M681.9,55.1c0,0.9,0.7,1.6,1.6,1.6c0.9,0,1.6-0.7,1.6-1.6c0-0.9-0.7-1.6-1.6-1.6
						C682.7,53.5,681.9,54.2,681.9,55.1z"/>
					
						<ellipse transform="matrix(1.317666e-03 -1 1 1.317666e-03 632.7349 738.5946)" class="st4" cx="686.2" cy="52.5" rx="0.6" ry="0.6"/>
				</g>
			</g>
		</g>
		<g>
			<text transform="matrix(1 0 0 1 695.5813 41.1124)" class="st0 st1 st2">info@syfdominicana.com</text>
			<g>
				<path class="st5" d="M681.9,45.4h3.3c2.8,0,5-2.3,5-5v-3.3c0-2.8-2.3-5-5-5h-3.3c-2.8,0-5,2.3-5,5v3.3
					C676.9,43.2,679.2,45.4,681.9,45.4z"/>
				<g>
					<path class="st4" d="M678.7,36.1C678.8,36.1,678.8,36.1,678.7,36.1c0.1-0.6,0.6-1,1.2-1c2.4,0,4.8,0,7.2,0
						c0.7,0,1.2,0.5,1.2,1.2c0,1.6,0,3.3,0,4.9c0,0.7-0.5,1.2-1.2,1.2c-0.4,0-0.7,0-1.1,0c-2,0-4.1,0-6.1,0c-0.4,0-0.8-0.2-1-0.5
						c-0.1-0.2-0.2-0.3-0.2-0.5C678.7,39.6,678.7,37.9,678.7,36.1z M687.2,41.9c0.3,0,0.6-0.2,0.6-0.5c0-0.1,0-0.1,0-0.2
						c0-1.6,0-3.2,0-4.9c0-0.4-0.3-0.7-0.7-0.7c-2.4,0-4.8,0-7.2,0c-0.4,0-0.7,0.3-0.7,0.7c0,1.6,0,3.3,0,4.9c0,0.4,0.3,0.6,0.7,0.6
						c1.2,0,2.4,0,3.6,0C684.8,41.9,686,41.9,687.2,41.9z"/>
					<path class="st4" d="M682.3,38.7c-0.2,0.2-0.4,0.4-0.6,0.5c-0.6,0.5-1.1,1.1-1.7,1.6c0,0-0.1,0-0.1,0.1c-0.1,0.1-0.1,0.3,0,0.4
						c0.1,0.1,0.3,0.1,0.4,0c0.2-0.2,0.4-0.4,0.7-0.6c0.6-0.5,1.1-1.1,1.7-1.6c0,0,0,0,0.1-0.1c0.2,0.2,0.4,0.4,0.6,0.6
						c0.2,0.1,0.3,0.1,0.5,0c0.2-0.2,0.4-0.4,0.6-0.5c0,0,0.1,0.1,0.1,0.1c0.8,0.7,1.5,1.4,2.3,2.1c0.1,0.1,0.1,0.1,0.2,0.1
						c0.1,0,0.2-0.1,0.2-0.2c0-0.1,0-0.2-0.1-0.3c-0.1-0.1-0.2-0.2-0.3-0.3c-0.7-0.6-1.4-1.3-2-1.9c0,0,0,0-0.1-0.1
						c0,0,0.1-0.1,0.1-0.1c0.7-0.7,1.5-1.3,2.2-2c0.1-0.1,0.2-0.2,0.1-0.3c0-0.2-0.3-0.3-0.4-0.2c-0.2,0.2-0.4,0.4-0.6,0.6
						c-0.9,0.8-1.7,1.5-2.6,2.3c0,0,0,0-0.1,0.1c-0.5-0.4-1-0.9-1.5-1.3c-0.6-0.5-1.2-1-1.7-1.6c-0.2-0.2-0.4-0.1-0.5,0.1
						c0,0.1,0,0.2,0.1,0.3c0.4,0.3,0.8,0.7,1.1,1C681.5,38,681.9,38.4,682.3,38.7z"/>
				</g>
			</g>
		</g>
		<path class="st6" d="M396,0v68.9c6.4-4.8,13.5-10.9,13.9-14.6V0H396z"/>
		<g>
			<text transform="matrix(1 0 0 1 695.5813 24.4375)" class="st0 st1 st2">www.syfdominicana.com</text>
			<g>
				<path class="st7" d="M681.9,28.7h3.3c2.8,0,5-2.3,5-5v-3.3c0-2.8-2.3-5-5-5h-3.3c-2.8,0-5,2.3-5,5v3.3
					C676.9,26.5,679.2,28.7,681.9,28.7z"/>
				<g>
					<path class="st4" d="M682.8,26.9c-1.6-0.3-2.8-1.1-3.6-2.6c-0.3-0.6-0.5-1.2-0.5-1.8c-0.1-1.5,0.4-2.8,1.4-3.8
						c0.8-0.8,1.8-1.3,3-1.4c1.6-0.1,2.9,0.4,3.9,1.5c0.8,0.8,1.2,1.8,1.3,2.9c0.1,1.4-0.3,2.6-1.2,3.6c-0.8,0.9-1.8,1.4-3,1.5
						c-0.1,0-0.2,0-0.3,0c-0.2,0-0.4,0-0.6,0C683.1,26.9,683,26.9,682.8,26.9z M685.8,21.8C685.8,21.7,685.8,21.7,685.8,21.8
						c0-0.4-0.1-0.8-0.1-1.2c0,0,0-0.1-0.1-0.1c-0.6,0-1.1,0-1.7,0c0,0,0,0,0,0c0,0.4,0,0.8,0,1.3C684.5,21.8,685.2,21.8,685.8,21.8
						z M683.9,22.4c0,0.4,0,0.8,0,1.3c0,0,0.1,0,0.1,0c0.5,0,1,0,1.6,0c0.1,0,0.1,0,0.1-0.1c0-0.4,0.1-0.8,0.1-1.1c0,0,0,0,0-0.1
						C685.2,22.4,684.5,22.4,683.9,22.4z M683.2,21.8c0-0.4,0-0.8,0-1.3c0,0-0.1,0-0.1,0c-0.5,0-1,0-1.6,0c-0.1,0-0.1,0-0.1,0.1
						c-0.1,0.4-0.1,0.8-0.1,1.2C682,21.8,682.6,21.8,683.2,21.8z M681.4,23.5c0,0.2,0,0.2,0.3,0.2c0.5,0,0.9,0,1.4,0
						c0,0,0.1,0,0.1,0c0-0.4,0-0.8,0-1.3c-0.6,0-1.3,0-1.9,0C681.3,22.8,681.4,23.1,681.4,23.5z M684.5,25.9
						c0.4-0.4,0.7-0.9,0.9-1.5c-0.5,0-1,0-1.6,0c0,0.6,0,1.2,0,1.9C684.1,26.2,684.4,26,684.5,25.9z M681.7,24.3
						C681.7,24.4,681.7,24.4,681.7,24.3c0.2,0.6,0.4,1,0.8,1.4c0.2,0.2,0.4,0.3,0.6,0.4c0,0,0.1,0,0.1,0c0-0.6,0-1.2,0-1.9
						C682.7,24.3,682.2,24.3,681.7,24.3z M685.4,19.8C685.4,19.8,685.4,19.8,685.4,19.8c-0.2-0.6-0.4-1.1-0.8-1.5
						c-0.2-0.2-0.5-0.4-0.7-0.4c0,0.6,0,1.2,0,1.9C684.4,19.8,684.9,19.8,685.4,19.8z M682.5,18.4c-0.4,0.4-0.7,0.9-0.8,1.4
						c0,0,0,0,0,0c0.5,0,1,0,1.6,0c0-0.6,0-1.2,0-1.9C683,18,682.7,18.2,682.5,18.4z M686.5,21.8c0.4,0,0.8,0,1.3,0
						c0-0.1,0-0.2,0-0.2c0-0.3-0.1-0.7-0.3-1c0,0,0-0.1-0.1-0.1c-0.3,0-0.7,0-1,0c0,0,0,0,0,0C686.4,20.9,686.4,21.3,686.5,21.8z
						 M687.2,23.7c0.2,0,0.2,0,0.3-0.2c0.1-0.3,0.1-0.6,0.2-0.9c0,0,0-0.1,0-0.1c-0.4,0-0.8,0-1.3,0c-0.1,0.4-0.1,0.8-0.2,1.3
						C686.6,23.7,686.9,23.7,687.2,23.7z M680.7,21.8c0.1-0.4,0.1-0.8,0.2-1.3c0,0-0.1,0-0.1,0c-0.3,0-0.6,0-0.9,0
						c0,0-0.1,0-0.1,0.1c-0.1,0.4-0.2,0.8-0.3,1.2c0,0,0,0,0,0.1C679.8,21.8,680.2,21.8,680.7,21.8z M679.6,23.3
						c0,0.1,0.1,0.2,0.1,0.4c0,0,0,0.1,0.1,0.1c0.4,0,0.7,0,1.1,0c0,0,0,0,0,0c-0.1-0.4-0.1-0.8-0.2-1.3c-0.4,0-0.8,0-1.3,0
						C679.4,22.7,679.5,23,679.6,23.3z M685.7,18.8c0.1,0.3,0.3,0.6,0.4,0.9c0,0.1,0.1,0.1,0.1,0.1c0.2,0,0.5,0,0.7,0
						c0,0,0.1,0,0.1,0c-0.4-0.7-1-1.1-1.7-1.5C685.5,18.5,685.6,18.7,685.7,18.8z M681.6,25.7c-0.3-0.4-0.4-0.8-0.6-1.2
						c0-0.1-0.1-0.1-0.1-0.1c-0.3,0-0.5,0-0.8,0c0,0-0.1,0-0.1,0c0.1,0.4,1.2,1.4,1.7,1.5C681.7,25.8,681.7,25.7,681.6,25.7z
						 M680,19.8c0,0,0.1,0,0.1,0c0.2,0,0.5,0,0.7,0c0.1,0,0.1,0,0.1-0.1c0.1-0.4,0.3-0.8,0.6-1.2c0-0.1,0.1-0.1,0.1-0.2
						C681,18.7,680.5,19.2,680,19.8z M687.1,24.4C687,24.3,687,24.3,687.1,24.4c-0.3,0-0.6,0-0.9,0c-0.1,0-0.1,0-0.1,0.1
						c-0.2,0.5-0.4,1-0.7,1.4c0,0,0,0,0,0C686.1,25.5,686.6,25,687.1,24.4z"/>
				</g>
			</g>
		</g>
		<g>
			<text transform="matrix(1 0 0 1 574.7258 24.4374)"><tspan x="0" y="0" class="st3 st8 st9">Consultorios:</tspan><tspan x="45.7" y="0" class="st0 st8 st9"> </tspan><tspan x="-14.1" y="9.6" class="st0 st10 st9">Calle Pdte González #4</tspan></text>
		</g>
		<g>
			<text transform="matrix(1 0 0 1 585.0812 45.4032)"><tspan x="0" y="0" class="st3 st8 st9">Clínica:</tspan><tspan x="25" y="0" class="st0 st8 st9"> </tspan><tspan x="-36.8" y="9.6" class="st0 st10 st9">Calle El Vergel #27.  C.P. 10107</tspan></text>
		</g>
		<g>
			<text transform="matrix(1 0 0 1 549.7538 67.4345)" class="st0 st8 st9">Santo Domingo  - Rep. Dom.</text>
		</g>
		<g>
			<g>
				<path class="st5" d="M682.5,78.1h3.3c2.8,0,5-2.3,5-5v-3.3c0-2.8-2.3-5-5-5h-3.3c-2.8,0-5,2.3-5,5v3.3
					C677.5,75.8,679.7,78.1,682.5,78.1z"/>
				<g>
					<path class="st4" d="M681,67.9c0,0-0.6,4.5,3,8.4l2.2,0l0.3-0.2l-1.4-2.1l-0.7,0.2l-1.8-4.8l0.7-0.5l-0.3-2.5h-0.3L681,67.9z"
						/>
					<polygon class="st4" points="683.5,66.5 683.8,68.9 684.3,68.7 684.1,66.5 					"/>
					<polygon class="st4" points="685.5,73.9 687,75.9 687.3,75.5 686.1,73.6 					"/>
				</g>
			</g>
		</g>
		<g>
			<text transform="matrix(1 0 0 1 695.449 73.7587)" class="st0 st1 st2">+1 (786) 544 43 16</text>
		</g>
	</g>
	<g>
		<g>
			<g>
				<g>
					<g>
						<g>
							<path class="st11" d="M464.1,32.2L464.1,32.2c0.3,0,0.5,0.2,0.5,0.4c1,3.1,3.1,4.9,6.1,4.9c2.6,0,4.5-1.6,4.5-3.8
								c0-5.1-11.3-7.1-11.3-13.5c0-3.2,2.7-5.3,6.6-5.3c1.2,0,2,0.1,2.8,0.3c0.7,0.1,1.3,0.3,1.9,0.3c0.4,0,0.6-0.1,0.8-0.3
								c0.1-0.1,0.3-0.2,0.5-0.2l0,0c0.4,0,0.6,0.3,0.7,0.6l0.6,4.4c0.1,0.4-0.2,0.7-0.6,0.7l0,0c-0.2,0-0.5-0.2-0.5-0.4
								c-1.1-2.7-3.3-4.3-5.7-4.3c-2.3,0-3.5,1.4-3.5,3c0,4.9,11.3,6.4,11.3,13.4c0,3.8-3.1,6.3-7.7,6.3c-2.7,0-3.8-0.7-4.8-0.7
								c-0.3,0-0.6,0.1-0.8,0.3c-0.1,0.1-0.3,0.2-0.4,0.2l0,0c-0.3,0-0.6-0.3-0.7-0.6l-0.7-5.1C463.5,32.5,463.8,32.2,464.1,32.2z"
								/>
							<g>
								<path class="st11" d="M517.3,34.3c0,2.8,0.4,3.5,2.7,3.6c0.3,0,0.5,0.2,0.5,0.5v0c0,0.3-0.2,0.5-0.5,0.5h-9.1
									c-0.3,0-0.5-0.2-0.5-0.5v0c0-0.3,0.2-0.5,0.5-0.5c2-0.1,2.4-1.1,2.4-2.9V19.3c0-1.9-0.6-2.6-2.4-2.7c-0.3,0-0.5-0.2-0.5-0.5
									l0,0c0-0.3,0.2-0.5,0.5-0.5h16.4c0.4,0,0.7,0.3,0.7,0.7v3.5c0,0.3-0.2,0.5-0.5,0.5l0,0c-0.3,0-0.5-0.2-0.5-0.5
									c-0.2-2.1-1-2.5-3.8-2.5h-5.8v8.3h5.8c2.1,0,2.7-0.3,2.9-2c0-0.3,0.3-0.5,0.5-0.5h0c0.3,0,0.5,0.2,0.5,0.5v5.9
									c0,0.3-0.2,0.5-0.5,0.5h0c-0.3,0-0.5-0.2-0.5-0.5c-0.3-1.9-0.9-2.4-3.1-2.4h-5.6V34.3z"/>
							</g>
							<path class="st3" d="M508.9,37.8c-0.1-0.2-0.2-0.2-0.4-0.2c-1.5,0.1-3.1-0.1-4.7-0.6l0,0c-1.1-0.4-2.2-0.9-3.2-1.6
								c-0.6-0.4-1.1-0.8-1.6-1.2c1.9-2.4,2.9-5.2,2.9-7.6c0-0.2-0.2-0.4-0.4-0.4c-1.4-0.3-2.7-0.4-4-0.3c-0.2,0-0.2,0.2,0,0.3
								c0.4,0.2,0.9,0.4,1.3,0.6c0.5,0.3,0.8,0.8,0.9,1.4c0.2,1.8-0.5,3.7-1.7,5.3c-3.9-3-7.3-6.6-10.3-10.5
								c-0.2-0.2-0.3-0.4-0.4-0.6c-1-2-0.2-4.5,1.9-5.6c2.1-1.1,4.6-0.3,5.6,1.7c0.4,0.7,0.5,1.5,0.4,2.2c0,0.2,0.3,0.3,0.3,0.1
								c0.7-1.6,0.8-3.2,0.2-4.7c0-0.1,0-0.1-0.1-0.2c-0.1-0.2-0.2-0.3-0.4-0.3c-2.4-0.7-5.2-0.5-7.6,0.4c-1,0.4-1.9,0.9-2.6,1.7
								c-0.6,0.8-1,1.7-1.2,2.7c0,0.2,0,0.4,0,0.7c0,1.6,0.7,3,1.8,4c-2.8,1.8-5.1,5-4.4,8.4c0.4,2,1.9,3.4,3.7,4.2
								c2,0.9,4.3,1.1,6.4,0.7c1.1-0.2,2.1-0.5,3.1-0.9c0.5-0.2,1-0.4,1.4-0.7c0.1-0.1,1.4-0.9,1.4-0.9c0.8,0.6,1.7,1.2,2.6,1.7
								c2.2,1.4,5.5,1.8,8.8,0.9C508.8,38.3,509,38,508.9,37.8z M496.1,35c-0.2,0.1-0.3,0.3-0.5,0.4c-0.4,0.3-0.9,0.6-1.4,0.8
								c-0.1,0.1-0.2,0.1-0.3,0.2c-3.4,1.5-7.1,0.9-9-1.7c-1.5-2.2-1.3-5.2,0.3-7.6c0,0,0,0,0,0c0.3-0.4,0.6-0.8,1-1.2
								C489.1,29.2,492.5,32.4,496.1,35z"/>
						</g>
					</g>
				</g>
			</g>
		</g>
		<g>
			<path class="st11" d="M453.1,33.1c0,0.3,0,0.7,0,1c0,1.2-0.1,2.4-0.4,3.5c0.2-0.1,0.5-0.1,0.7-0.1c1.2,0,2.1,0.9,2.1,2.1h5.1
				L453.1,33.1z"/>
			<path class="st12" d="M442.2,30c-0.2-0.9-0.5-1.7-0.8-2.5c-0.1-0.2-0.1-0.3-0.2-0.5c-0.8-2-1.3-4.3-1.3-6.6
				c0-1.8,0.3-3.5,0.8-5.2h0l0,0c0.1-0.3,0.2-0.7,0.4-1h-8.5c-0.1,0.3-0.2,0.6-0.4,1l0,0h0c-0.3,0.9-0.5,1.8-0.6,2.7
				c-0.1,0.8-0.2,1.7-0.2,2.5c0,2.4,0.5,4.6,1.3,6.7c0,0.1,0.1,0.2,0.1,0.2c0.9,2.1,1.3,4.3,1.3,6.7c0,1.3-0.1,2.5-0.4,3.7L442.2,30
				z"/>
			<path class="st11" d="M452.2,34.1c0-2.3-0.5-4.6-1.3-6.6c-0.1-0.2-0.1-0.3-0.2-0.5c-0.8-2-1.3-4.3-1.3-6.6c0-1.8,0.3-3.5,0.8-5.2
				h0l0,0c0.1-0.3,0.2-0.7,0.4-1l-8.5,0c-0.1,0.3-0.2,0.6-0.4,1h0c-0.3,0.9-0.5,1.8-0.6,2.7c-0.1,0.8-0.2,1.7-0.2,2.5
				c0,2.4,0.5,4.6,1.3,6.7c0,0.1,0.1,0.2,0.1,0.2c0.4,1,0.7,2,0.9,3l-10,9.2h5.3c0,0,0,0,0,0c0-1.2,0.9-2.1,2.1-2.1s2.1,0.9,2.1,2.1
				c0,0,0,0,0,0h0h8.5h0l0,0c0.3-0.9,0.5-1.9,0.7-2.9C452.1,35.8,452.2,35,452.2,34.1z"/>
			<path class="st3" d="M460.4,27.5c-0.1-0.2-0.1-0.3-0.2-0.5c-0.8-2-1.3-4.3-1.3-6.6c0-1.8,0.3-3.5,0.8-5.2h0l0,0
				c0.1-0.3,0.2-0.7,0.4-1l-8.5,0c-0.1,0.3-0.2,0.6-0.4,1h0c-0.3,0.9-0.5,1.8-0.6,2.7c-0.1,0.8-0.2,1.7-0.2,2.5
				c0,2.4,0.5,4.6,1.3,6.7c0,0.1,0.1,0.2,0.1,0.2c0.6,1.4,1,2.8,1.2,4.3l8.1,6.9c0.2-0.6,0.3-1.3,0.4-1.9c0.1-0.8,0.2-1.7,0.2-2.5
				C461.7,31.8,461.2,29.5,460.4,27.5z"/>
		</g>
		<g>
			<path class="st11" d="M431.7,50.3L431.7,50.3c0.1,0,0.2,0.1,0.2,0.2c0.4,1.2,1.3,1.9,2.4,1.9c1,0,1.8-0.6,1.8-1.5
				c0-2-4.5-2.9-4.5-5.4c0-1.3,1.1-2.1,2.6-2.1c0.5,0,0.8,0.1,1.1,0.1c0.3,0.1,0.5,0.1,0.8,0.1c0.1,0,0.2,0,0.3-0.1
				c0.1,0,0.1-0.1,0.2-0.1l0,0c0.1,0,0.3,0.1,0.3,0.2l0.2,1.7c0,0.1-0.1,0.3-0.2,0.3l0,0c-0.1,0-0.2-0.1-0.2-0.2
				c-0.4-1.1-1.3-1.7-2.3-1.7c-0.9,0-1.4,0.6-1.4,1.2c0,2,4.5,2.5,4.5,5.4c0,1.5-1.2,2.5-3.1,2.5c-1.1,0-1.5-0.3-1.9-0.3
				c-0.1,0-0.2,0-0.3,0.1c0,0-0.1,0.1-0.2,0.1l0,0c-0.1,0-0.3-0.1-0.3-0.2l-0.3-2C431.4,50.5,431.5,50.3,431.7,50.3z"/>
			<path class="st11" d="M440,44.8h3.2c0.1,0,0.2,0.1,0.2,0.2v0c0,0.1-0.1,0.2-0.2,0.2c-0.7,0-0.9,0.3-0.9,1.1v5
				c0,0.9,0.2,1.2,0.9,1.2c0.1,0,0.2,0.1,0.2,0.2l0,0c0,0.1-0.1,0.2-0.2,0.2H440c-0.1,0-0.2-0.1-0.2-0.2l0,0c0-0.1,0.1-0.2,0.2-0.2
				c0.8,0,0.9-0.4,0.9-1.1v-5.2c0-0.6-0.1-0.9-0.9-1c-0.1,0-0.2-0.1-0.2-0.2v0C439.8,44.9,439.9,44.8,440,44.8z"/>
			<path class="st11" d="M447.9,44.9l5.5,5.9v-4.6c0-0.9-0.1-1.1-1.1-1.1c-0.1,0-0.2-0.1-0.2-0.2l0,0c0-0.1,0.1-0.2,0.2-0.2h2.7
				c0.1,0,0.2,0.1,0.2,0.2v0c0,0.1-0.1,0.2-0.2,0.2c-0.7,0-0.9,0.2-0.9,1.1v6.1c0,0.3-0.2,0.5-0.5,0.5l0,0c-0.1,0-0.3-0.1-0.3-0.2
				l-6-6.4v4.9c0,0.9,0.1,1.3,1.1,1.3c0.1,0,0.2,0.1,0.2,0.2l0,0c0,0.1-0.1,0.2-0.2,0.2h-2.7c-0.1,0-0.2-0.1-0.2-0.2l0,0
				c0-0.1,0.1-0.2,0.2-0.2c0.8,0,0.9-0.3,0.9-1.1v-6.1c0-0.2,0.2-0.4,0.4-0.4h0.6C447.8,44.8,447.9,44.8,447.9,44.9z"/>
			<path class="st11" d="M457.6,44.8h3.2c0.1,0,0.2,0.1,0.2,0.2l0,0c0,0.1-0.1,0.2-0.2,0.2c-0.8,0-0.9,0.3-0.9,1.1v3.4
				c0,1.7,1.1,2.5,2.7,2.5c1.4,0,2.7-0.6,2.7-2.5v-3.4c0-0.9-0.2-1.1-1-1.1c-0.1,0-0.2-0.1-0.2-0.2l0,0c0-0.1,0.1-0.2,0.2-0.2h2.7
				c0.1,0,0.2,0.1,0.2,0.2v0c0,0.1-0.1,0.2-0.2,0.2c-0.8,0-1,0.3-1,1.1v3.6c0,2-1.5,3.2-3.8,3.2c-2.4,0-3.7-1.2-3.7-3.2v-3.6
				c0-0.7-0.2-0.9-0.9-1c-0.1,0-0.2-0.1-0.2-0.2v0C457.5,44.9,457.5,44.8,457.6,44.8z"/>
			<path class="st11" d="M469.2,50.6L469.2,50.6c0.1,0,0.2,0.1,0.2,0.1c0.3,1.1,1.1,1.7,2.1,1.7c0.9,0,1.6-0.6,1.6-1.3
				c0-1.8-4-2.5-4-4.7c0-1.1,1-1.9,2.3-1.9c0.4,0,0.7,0.1,1,0.1c0.3,0.1,0.5,0.1,0.7,0.1c0.1,0,0.2,0,0.3-0.1c0,0,0.1-0.1,0.1-0.1
				h0.1c0.1,0,0.2,0.1,0.2,0.2l0.2,1.6c0,0.1-0.1,0.2-0.2,0.2h0c-0.1,0-0.2-0.1-0.2-0.1c-0.4-0.9-1.1-1.5-2-1.5
				c-0.8,0-1.2,0.5-1.2,1c0,1.7,4,2.2,4,4.7c0,1.3-1.1,2.2-2.7,2.2c-0.9,0-1.3-0.2-1.7-0.2c-0.1,0-0.2,0-0.3,0.1c0,0-0.1,0-0.1,0h0
				c-0.1,0-0.2-0.1-0.2-0.2l-0.3-1.8C469,50.7,469.1,50.6,469.2,50.6z"/>
			<path class="st11" d="M493.2,50.9c0,1.1,0.2,1.4,1.1,1.4c0.1,0,0.2,0.1,0.2,0.2l0,0c0,0.1-0.1,0.2-0.2,0.2h-3.7
				c-0.1,0-0.2-0.1-0.2-0.2v0c0-0.1,0.1-0.2,0.2-0.2c0.8,0,0.9-0.4,0.9-1.2v-6.3c0-0.8-0.2-1.1-0.9-1.1c-0.1,0-0.2-0.1-0.2-0.2l0,0
				c0-0.1,0.1-0.2,0.2-0.2h6.5c0.2,0,0.3,0.1,0.3,0.3v1.4c0,0.1-0.1,0.2-0.2,0.2l0,0c-0.1,0-0.2-0.1-0.2-0.2c-0.1-0.8-0.4-1-1.5-1
				h-2.3v3.3h2.3c0.8,0,1.1-0.1,1.2-0.8c0-0.1,0.1-0.2,0.2-0.2h0c0.1,0,0.2,0.1,0.2,0.2V49c0,0.1-0.1,0.2-0.2,0.2h0
				c-0.1,0-0.2-0.1-0.2-0.2c-0.1-0.8-0.4-0.9-1.2-0.9h-2.2V50.9z"/>
			<path class="st11" d="M504.1,44.8c0.1,0,0.3,0.1,0.3,0.2l2.3,6.3c0.3,0.9,0.5,1.1,1.1,1.1c0.1,0,0.2,0.1,0.2,0.2v0
				c0,0.1-0.1,0.2-0.2,0.2h-3.3c-0.1,0-0.2-0.1-0.2-0.2l0,0c0-0.1,0.1-0.2,0.2-0.2c0.8,0,1.1-0.1,1.1-0.5c0-0.1,0-0.3-0.2-0.7
				l-0.6-1.6H502l-0.6,1.7c-0.1,0.2-0.1,0.4-0.1,0.5c0,0.3,0.2,0.5,1.1,0.5c0.1,0,0.2,0.1,0.2,0.2l0,0c0,0.1-0.1,0.2-0.2,0.2h-2.7
				c-0.1,0-0.2-0.1-0.2-0.2v0c0-0.1,0.1-0.2,0.2-0.2c0.7,0,0.8-0.2,1.2-1.1l2.2-6.3c0-0.1,0.2-0.2,0.3-0.2H504.1z M504.6,49.1
				l-1.2-3.2l-1.2,3.2H504.6z"/>
			<path class="st11" d="M517.6,52.6c0,0.1-0.1,0.1-0.2,0.1c-0.1,0-0.2,0-0.3,0c-0.6,0-1.4,0.3-2.4,0.3c-2.9,0-4.4-1.7-4.4-3.9
				c0-2.1,1.4-4.2,4.5-4.2c1.3,0,2.3,0.4,2.6,0.4c0.1,0,0.1,0,0.2-0.1c0,0,0.1,0,0.1,0h0c0.1,0,0.2,0.1,0.2,0.2l0,1.6
				c0,0.1-0.1,0.2-0.2,0.2l0,0c-0.1,0-0.2-0.1-0.2-0.1c-0.5-1.2-1.4-1.8-2.8-1.8c-1.8,0-3.1,1.4-3.1,3.5c0,2.2,1.4,3.8,3.3,3.8
				c1.2,0,2.2-0.6,2.9-1.8c0-0.1,0.1-0.1,0.2-0.1l0,0c0.1,0,0.2,0.1,0.2,0.3L517.6,52.6z"/>
			<path class="st11" d="M520.9,52.6L520.9,52.6c0-0.1,0.1-0.2,0.2-0.2c0.9,0,1.1-0.2,1.1-0.9V46c0-0.8-0.4-0.9-1.1-0.9
				c-0.1,0-0.2-0.1-0.2-0.2l0,0c0-0.1,0.1-0.2,0.2-0.2h6c0.2,0,0.3,0.1,0.3,0.3l0.1,1.4c0,0.1-0.1,0.2-0.2,0.2h0
				c-0.1,0-0.2-0.1-0.2-0.1l0-0.1c-0.3-1.1-0.5-1.1-1.3-1.1h-2.2v3h2c0.7,0,0.9-0.1,0.9-0.8c0-0.1,0.1-0.2,0.2-0.2l0,0
				c0.1,0,0.2,0.1,0.2,0.2v2.2c0,0.1-0.1,0.2-0.2,0.2h0c-0.1,0-0.2-0.1-0.2-0.2c-0.1-0.8-0.3-0.9-0.9-0.9h-2v2.3
				c0,0.8,0.1,0.9,0.7,0.9h1.4c1.2,0,1.5-0.2,1.8-1.3c0-0.1,0.1-0.1,0.2-0.1l0,0c0.1,0,0.2,0.1,0.2,0.2l-0.1,1.5
				c0,0.2-0.2,0.3-0.3,0.3h-6.4C521,52.8,520.9,52.7,520.9,52.6z"/>
			<path class="st3" d="M488.1,52.4c0-0.1-0.1-0.1-0.2-0.1c-0.6,0-1.2,0-1.9-0.2l0,0c-0.5-0.1-0.9-0.4-1.3-0.6
				c-0.2-0.2-0.4-0.3-0.7-0.5c0.8-0.9,1.2-2.1,1.1-3c0-0.1-0.1-0.2-0.1-0.2c-0.5-0.1-1.1-0.2-1.6-0.1c-0.1,0-0.1,0.1,0,0.1
				c0.2,0.1,0.3,0.2,0.5,0.2c0.2,0.1,0.3,0.3,0.4,0.5c0.1,0.7-0.2,1.5-0.7,2.1c-1.5-1.2-2.9-2.6-4.1-4.2c-0.1-0.1-0.1-0.2-0.2-0.3
				c-0.4-0.8-0.1-1.8,0.8-2.2c0.8-0.4,1.8-0.1,2.2,0.7c0.1,0.3,0.2,0.6,0.2,0.9c0,0.1,0.1,0.1,0.1,0c0.3-0.6,0.3-1.3,0.1-1.9
				c0,0,0-0.1,0-0.1c0-0.1-0.1-0.1-0.1-0.1c-1-0.3-2.1-0.2-3,0.2c-0.4,0.2-0.8,0.4-1,0.7c-0.3,0.3-0.4,0.7-0.5,1.1
				c0,0.1,0,0.2,0,0.3c0,0.6,0.3,1.2,0.7,1.6c-1.1,0.7-2,2-1.8,3.4c0.2,0.8,0.8,1.4,1.5,1.7c0.8,0.4,1.7,0.4,2.6,0.3
				c0.4-0.1,0.8-0.2,1.2-0.4c0.2-0.1,0.4-0.2,0.6-0.3c0.1,0,0.5-0.4,0.6-0.3c0.3,0.2,0.7,0.5,1,0.7c0.9,0.6,2.2,0.7,3.5,0.3
				C488.1,52.6,488.2,52.5,488.1,52.4z M483,51.3c-0.1,0.1-0.1,0.1-0.2,0.2c-0.2,0.1-0.4,0.2-0.5,0.3c0,0-0.1,0-0.1,0.1
				c-1.4,0.6-2.9,0.3-3.6-0.7c-0.6-0.9-0.5-2.1,0.1-3.1c0,0,0,0,0,0c0.1-0.2,0.3-0.3,0.4-0.5C480.2,49,481.6,50.2,483,51.3z"/>
		</g>
		<g>
			<g>
				<path class="st12" d="M435.2,63.6c-0.1,0-0.1-0.1-0.2-0.1c-0.3,0-0.8,0.2-1.5,0.2c-1.7,0-2.6-1-2.6-2.3c0-1.2,0.8-2.5,2.7-2.5
					c0.8,0,1.4,0.2,1.6,0.2c0.1,0,0.1,0,0.1-0.1h0.2l0,1.2h-0.2c-0.3-0.8-0.9-1.2-1.7-1.2c-1.1,0-1.8,0.8-1.8,2.1
					c0,1.3,0.8,2.2,2,2.2c0.7,0,1.4-0.4,1.8-1.1h0.2L435.2,63.6z"/>
				<path class="st12" d="M437.4,63.6v-0.2c0.6,0,0.7-0.1,0.7-0.6v-2.9c0-0.5-0.1-0.6-0.7-0.6V59h2.4v0.2c-0.8,0-0.9,0-0.9,0.6v3.1
					c0,0.3,0.1,0.4,0.4,0.4h0.8c0.6,0,0.7,0,1.2-0.8h0.2l-0.6,1.1H437.4z"/>
				<path class="st12" d="M443.1,59h2v0.2c-0.5,0-0.6,0.1-0.6,0.6v2.8c0,0.5,0.1,0.7,0.6,0.7v0.2h-2v-0.2c0.6,0,0.6-0.2,0.6-0.6v-3
					c0-0.4-0.1-0.6-0.6-0.5V59z M443.6,58.5l0.3-1.1h0.8l-1,1.1H443.6z"/>
				<path class="st12" d="M447.9,59.8v2.8c0,0.6,0.1,0.8,0.7,0.7v0.2h-1.7v-0.2c0.5,0,0.6-0.2,0.6-0.6v-3.3
					c-0.2-0.2-0.3-0.2-0.6-0.2V59h1.3l3.3,3.4v-2.6c0-0.5-0.1-0.6-0.7-0.6V59h1.8v0.2c-0.5,0-0.6,0.1-0.6,0.6v3.8h-0.4L447.9,59.8z"
					/>
				<path class="st12" d="M454.3,59h2v0.2c-0.5,0-0.6,0.1-0.6,0.6v2.8c0,0.5,0.1,0.7,0.6,0.7v0.2h-2v-0.2c0.6,0,0.6-0.2,0.6-0.6v-3
					c0-0.4-0.1-0.6-0.6-0.5V59z"/>
				<path class="st12" d="M462.6,63.6c-0.1,0-0.1-0.1-0.2-0.1c-0.3,0-0.8,0.2-1.5,0.2c-1.7,0-2.6-1-2.6-2.3c0-1.2,0.8-2.5,2.7-2.5
					c0.8,0,1.4,0.2,1.6,0.2c0.1,0,0.1,0,0.1-0.1h0.2l0,1.2h-0.2c-0.3-0.8-0.9-1.2-1.7-1.2c-1.1,0-1.8,0.8-1.8,2.1
					c0,1.3,0.8,2.2,2,2.2c0.7,0,1.4-0.4,1.8-1.1h0.2L462.6,63.6z"/>
				<path class="st12" d="M464.7,63.4c0.5,0,0.6-0.1,0.8-0.7l1.3-3.6l-0.1-0.2h0.8l1.4,3.8c0.2,0.6,0.3,0.7,0.7,0.7v0.2h-2.2v-0.2
					c0.6,0,0.7-0.1,0.7-0.3c0-0.1,0-0.2-0.1-0.4l-0.4-0.9h-1.7l-0.4,1c-0.1,0.1-0.1,0.2-0.1,0.3c0,0.2,0.1,0.3,0.7,0.3v0.2h-1.8
					V63.4z M467.7,61.4l-0.7-1.9l-0.7,1.9H467.7z"/>
				<path class="st12" d="M478.3,63.4c0.5,0,0.6-0.1,0.8-0.7l1.3-3.6l-0.1-0.2h0.8l1.4,3.8c0.2,0.6,0.3,0.7,0.7,0.7v0.2h-2.2v-0.2
					c0.6,0,0.7-0.1,0.7-0.3c0-0.1,0-0.2-0.1-0.4l-0.4-0.9h-1.7l-0.4,1c-0.1,0.1-0.1,0.2-0.1,0.3c0,0.2,0.1,0.3,0.7,0.3v0.2h-1.8
					V63.4z M481.3,61.4l-0.7-1.9l-0.7,1.9H481.3z"/>
				<path class="st12" d="M489.1,63.6c-0.1,0-0.1-0.1-0.2-0.1c-0.3,0-0.8,0.2-1.5,0.2c-1.7,0-2.6-1-2.6-2.3c0-1.2,0.8-2.5,2.7-2.5
					c0.8,0,1.4,0.2,1.6,0.2c0.1,0,0.1,0,0.1-0.1h0.2l0,1.2h-0.2c-0.3-0.8-0.9-1.2-1.7-1.2c-1.1,0-1.8,0.8-1.8,2.1
					c0,1.3,0.8,2.2,2,2.2c0.7,0,1.4-0.4,1.8-1.1h0.2L489.1,63.6z"/>
				<path class="st12" d="M491.1,63.4c0.5,0,0.6-0.1,0.8-0.7l1.3-3.6l-0.1-0.2h0.8l1.4,3.8c0.2,0.6,0.3,0.7,0.7,0.7v0.2H494v-0.2
					c0.6,0,0.7-0.1,0.7-0.3c0-0.1,0-0.2-0.1-0.4l-0.4-0.9h-1.7l-0.4,1c-0.1,0.1-0.1,0.2-0.1,0.3c0,0.2,0.1,0.3,0.7,0.3v0.2h-1.8
					V63.4z M494.2,61.4l-0.7-1.9l-0.7,1.9H494.2z"/>
				<path class="st12" d="M498.5,59.8c0-0.5-0.1-0.7-0.7-0.6V59c0.2,0,0.8,0,1.1,0c0.4,0,0.8,0,1,0c1.1,0,1.9,0.2,2.3,0.6
					c0.5,0.5,0.6,1,0.6,1.6c0,1.1-0.8,2.4-2.9,2.4h-2.3v-0.2c0.6,0,0.7-0.1,0.7-0.6V59.8z M499.3,62.8c0,0.5,0.1,0.5,0.5,0.5
					c0.9,0,1.3-0.2,1.7-0.5c0.4-0.4,0.6-1.1,0.6-1.6c0-0.5-0.1-1.1-0.6-1.6c-0.4-0.4-0.8-0.5-1.7-0.5c-0.1,0-0.4,0-0.5,0V62.8z"/>
				<path class="st12" d="M504.8,63.6v-0.2c0.6,0,0.7-0.1,0.7-0.5v-3.2c0-0.5-0.2-0.5-0.7-0.5V59h3.7l0.1,1.1h-0.2l0-0.2
					c-0.1-0.6-0.3-0.6-0.7-0.6h-1.3V61h1.1c0.4,0,0.5-0.1,0.5-0.6h0.2V62H508c-0.1-0.5-0.1-0.6-0.5-0.6h-1.1v1.3
					c0,0.5,0.1,0.5,0.4,0.5h0.8c0.7,0,0.9-0.1,1.1-0.8h0.2l-0.1,1.1H504.8z"/>
				<path class="st12" d="M510.4,63.4c0.5,0,0.6-0.1,0.6-0.7l0.2-2.7c0-0.7,0-0.7-0.5-0.7V59h1.4l1.6,3.4l1.5-3.4h1.4v0.2
					c-0.4,0-0.5,0.1-0.5,0.4l0.3,3.3c0,0.4,0.2,0.4,0.6,0.4v0.2h-2.1v-0.2c0.6,0,0.7-0.1,0.6-0.9l-0.2-2.7h0l-1.7,3.8h-0.2l-1.7-3.7
					h0l-0.2,2.7c-0.1,0.8,0.1,0.8,0.6,0.8v0.2h-1.6V63.4z"/>
				<path class="st12" d="M518.7,59h2v0.2c-0.5,0-0.6,0.1-0.6,0.6v2.8c0,0.5,0.1,0.7,0.6,0.7v0.2h-2v-0.2c0.6,0,0.6-0.2,0.6-0.6v-3
					c0-0.4-0.1-0.6-0.6-0.5V59z"/>
				<path class="st12" d="M522.4,63.4c0.5,0,0.6-0.1,0.8-0.7l1.3-3.6l-0.1-0.2h0.8l1.4,3.8c0.2,0.6,0.3,0.7,0.7,0.7v0.2h-2.2v-0.2
					c0.6,0,0.7-0.1,0.7-0.3c0-0.1,0-0.2-0.1-0.4l-0.4-0.9h-1.7l-0.4,1c-0.1,0.1-0.1,0.2-0.1,0.3c0,0.2,0.1,0.3,0.7,0.3v0.2h-1.8
					V63.4z M525.4,61.4l-0.7-1.9l-0.7,1.9H525.4z"/>
			</g>
		</g>
		<g>
			<g>
				<path class="st12" d="M452.2,70.5c0,0.6,0.1,0.7,0.6,0.7v0.2h-2v-0.2c0.5,0,0.6-0.2,0.6-0.6v-3.1c0-0.4-0.1-0.5-0.6-0.5v-0.2
					h3.5v0.9h-0.2c0-0.5-0.2-0.6-0.8-0.6h-1.1v1.6h1.1c0.4,0,0.5-0.1,0.6-0.5h0.2v1.3H454c-0.1-0.5-0.2-0.5-0.6-0.5h-1.1V70.5z"/>
				<path class="st12" d="M456.1,66.8h2.1V67c-0.5,0-0.6,0.1-0.6,0.6v2c0,1,0.7,1.4,1.6,1.4c0.8,0,1.6-0.4,1.6-1.4v-2
					c0-0.6-0.1-0.6-0.7-0.6v-0.2h1.8V67c-0.6,0-0.7,0.1-0.7,0.6v2c0,1.1-0.9,1.8-2.2,1.8c-1.4,0-2.1-0.7-2.1-1.9v-2.1
					c0-0.4-0.1-0.6-0.6-0.6V66.8z"/>
				<path class="st12" d="M464.4,67.7v2.8c0,0.6,0.1,0.8,0.7,0.7v0.2h-1.7v-0.2c0.5,0,0.6-0.2,0.6-0.6v-3.3
					c-0.2-0.2-0.3-0.2-0.6-0.2v-0.2h1.3l3.3,3.4v-2.6c0-0.5-0.1-0.6-0.7-0.6v-0.2h1.8V67c-0.5,0-0.6,0.1-0.6,0.6v3.8H468L464.4,67.7
					z"/>
				<path class="st12" d="M471.4,67.7c0-0.5-0.1-0.7-0.7-0.6v-0.2c0.2,0,0.8,0,1.1,0c0.4,0,0.8,0,1,0c1.1,0,1.9,0.2,2.3,0.6
					c0.5,0.5,0.6,1,0.6,1.6c0,1.1-0.8,2.4-2.9,2.4h-2.3v-0.2c0.6,0,0.7-0.1,0.7-0.6V67.7z M472.2,70.7c0,0.5,0.1,0.5,0.5,0.5
					c0.9,0,1.3-0.2,1.7-0.5c0.4-0.4,0.6-1.1,0.6-1.6c0-0.5-0.1-1.1-0.6-1.6c-0.4-0.4-0.8-0.5-1.7-0.5c-0.1,0-0.4,0-0.5,0V70.7z"/>
				<path class="st12" d="M477.2,71.2c0.5,0,0.6-0.1,0.8-0.7l1.3-3.6l-0.1-0.2h0.8l1.4,3.8c0.2,0.6,0.3,0.7,0.7,0.7v0.2h-2.2v-0.2
					c0.6,0,0.7-0.1,0.7-0.3c0-0.1,0-0.2-0.1-0.4l-0.4-0.9h-1.7l-0.4,1c-0.1,0.1-0.1,0.2-0.1,0.3c0,0.2,0.1,0.3,0.7,0.3v0.2h-1.8
					V71.2z M480.2,69.3l-0.7-1.9l-0.7,1.9H480.2z"/>
				<path class="st12" d="M488,71.4c-0.1,0-0.1-0.1-0.2-0.1c-0.3,0-0.8,0.2-1.5,0.2c-1.7,0-2.6-1-2.6-2.3c0-1.2,0.8-2.5,2.7-2.5
					c0.8,0,1.4,0.2,1.6,0.2c0.1,0,0.1,0,0.1-0.1h0.2l0,1.2h-0.2c-0.3-0.8-0.9-1.2-1.7-1.2c-1.1,0-1.8,0.8-1.8,2.1
					c0,1.3,0.8,2.2,2,2.2c0.7,0,1.4-0.4,1.8-1.1h0.2L488,71.4z"/>
				<path class="st12" d="M490.3,66.8h2V67c-0.5,0-0.6,0.1-0.6,0.6v2.8c0,0.5,0.1,0.7,0.6,0.7v0.2h-2v-0.2c0.6,0,0.6-0.2,0.6-0.6v-3
					c0-0.4-0.1-0.6-0.6-0.5V66.8z"/>
				<path class="st12" d="M497,66.7c1.6,0,2.7,0.9,2.7,2.3c0,1.3-1.1,2.5-2.7,2.5c-1.5,0-2.6-1-2.6-2.3
					C494.4,67.8,495.5,66.7,497,66.7z M497.1,71.3c1,0,1.7-0.8,1.7-2.1c0-1.3-0.8-2.3-1.8-2.3c-1.1,0-1.7,0.8-1.7,2.1
					C495.2,70.5,496.2,71.3,497.1,71.3z M496.5,66.3l0.3-1.1h0.8l-1,1.1H496.5z"/>
				<path class="st12" d="M502.6,67.7v2.8c0,0.6,0.1,0.8,0.7,0.7v0.2h-1.7v-0.2c0.5,0,0.6-0.2,0.6-0.6v-3.3
					c-0.2-0.2-0.3-0.2-0.6-0.2v-0.2h1.3l3.3,3.4v-2.6c0-0.5-0.1-0.6-0.7-0.6v-0.2h1.8V67c-0.5,0-0.6,0.1-0.6,0.6v3.8h-0.4
					L502.6,67.7z"/>
			</g>
		</g>
		<rect x="473.2" y="61.4" class="st12" width="1.6" height="0.5"/>
	</g>
</g>
</svg>
