<?xml version="1.0" encoding="utf-8"?>
<!-- Generator: Adobe Illustrator 21.0.0, SVG Export Plug-In . SVG Version: 6.00 Build 0)  -->
<svg version="1.1" id="Capa_1" xmlns="http://www.w3.org/2000/svg" xmlns:xlink="http://www.w3.org/1999/xlink" x="0px" y="0px"
	 viewBox="0 0 600 600" style="enable-background:new 0 0 600 600;" xml:space="preserve">
<style type="text/css">
	.st0{fill:#0CAB86;}
	.st1{fill:#FFFFFF;}
</style>
<g>
	<path class="st0" d="M404.2,568.6H190.1c-88,0-160.1-72-160.1-160.1V194.4c0-88,72-160.1,160.1-160.1h214.1
		c88,0,160.1,72,160.1,160.1v214.1C564.3,496.6,492.2,568.6,404.2,568.6z"/>
	<g>
		<path class="st1" d="M393.2,495.4c-64.1,0-128.2,0-192.4,0c-2-0.3-3.9-0.7-5.9-1c-53.5-8.3-91.7-52.7-91.8-106.8
			c-0.1-57.3-0.1-114.6,0.1-171.9c0-7.2,0.6-14.4,2-21.4c10.1-50.8,53.6-86.4,105.5-86.5c57.6-0.1,115.1,0,172.7,0
			c4,0,8.1,0.3,12.1,0.7c52.5,5.1,94.9,50.8,95.3,103.5c0.4,59.6,0.4,119.1,0,178.7c-0.3,46.7-33.2,88.8-78.4,100.9
			C406.1,493.2,399.6,494.1,393.2,495.4z M456.5,301.5c0-28,0-56,0-84c0-4.2,0-8.4-0.6-12.5c-5.7-37.4-35.3-62.8-73.1-62.9
			c-57.2-0.1-114.3-0.1-171.5,0.1c-6.6,0-13.4,0.8-19.8,2.4c-30,7.7-54.1,35.8-53.8,71.5c0.4,56.9,0,113.8,0.2,170.7
			c0,6.7,0.7,13.7,2.4,20.2c8.2,32,36.8,53.7,70.7,53.8c57.4,0.1,114.8,0.1,172.2-0.1c6.5,0,13.2-0.8,19.4-2.4
			c32.2-8.2,53.7-36.7,53.9-71C456.6,358.8,456.5,330.2,456.5,301.5z"/>
		<path class="st1" d="M297.2,201.6c55.1,0.1,100,45.1,99.8,100.1c-0.2,55.2-45.2,100-100.2,99.7c-55-0.3-99.6-45-99.6-99.9
			C197.2,246.4,242.2,201.5,297.2,201.6z M231.6,301.3c-0.1,36.3,29.1,65.6,65.3,65.6c36.2,0,65.4-29,65.5-65.1
			c0.2-36.3-28.9-65.7-65.1-65.8C261,236,231.7,265.1,231.6,301.3z"/>
		<path class="st1" d="M401.2,222.9c-13.9,0-25.3-11.4-25.3-25.2c0-13.8,11.5-25.3,25.3-25.2c13.6,0.1,25,11.5,25.1,25.1
			C426.5,211.4,415.1,222.9,401.2,222.9z"/>
	</g>
</g>
</svg>
