<?xml version="1.0" encoding="utf-8"?>
<!-- Generator: Adobe Illustrator 21.0.0, SVG Export Plug-In . SVG Version: 6.00 Build 0)  -->
<svg version="1.1" id="Capa_1" xmlns="http://www.w3.org/2000/svg" xmlns:xlink="http://www.w3.org/1999/xlink" x="0px" y="0px"
	 viewBox="0 0 600 600" style="enable-background:new 0 0 600 600;" xml:space="preserve">
<style type="text/css">
	.st0{fill:#A1A1A1;}
	.st1{fill:#FFFFFF;}
</style>
<g>
	<path class="st0" d="M193.3,565h212.3c87.3,0,158.7-71.4,158.7-158.7V194c0-87.3-71.4-158.7-158.7-158.7H193.3
		C106,35.3,34.6,106.7,34.6,194v212.3C34.6,493.6,106,565,193.3,565z"/>
	<g>
		<path class="st1" d="M270.7,490.2c-64.5-11.1-112.2-45.5-142.8-103.3c-11.8-22.3-18.4-46.2-20.1-71.4
			c-4.1-59.1,14.7-109.9,56.3-151.8c32.8-33,72.9-51.6,119.4-55.1c62-4.7,114.7,16.1,157.2,61.3c30.1,31.9,46.7,70.5,50.2,114.3
			c4.4,55.4-12.3,104.1-49.4,145.2c-31.6,35.1-71.5,55.3-118.3,61.5c-3.7,0.5-7.4,1-11,1.5c-8.5,0-17,0-25.5,0
			C281.3,491.7,276,491.1,270.7,490.2z M388.4,287.1c0.1-0.9,0.4-1.8,0.3-2.6c-1.9-15.3-3.9-30.5-5.8-45.7c-0.2-1.9-0.9-2.8-3.1-2.8
			c-22,0.1-44.1,0.1-66.1,0.1c-0.4,0-0.7,0.2-1.3,0.3c0,16.8,0,33.6,0,50.8C337.9,287.1,363,287.1,388.4,287.1z M312.4,313.1
			c0,16.9,0,33.7,0,50.9c1.2,0.1,2.3,0.2,3.5,0.2c20.9,0,41.8,0,62.7,0.1c2.7,0,4.1-0.5,4.4-3.5c1.8-15,3.8-30,5.7-45
			c0.1-0.7,0-1.5,0-2.6C363,313.1,337.8,313.1,312.4,313.1z M286.4,287.1c0-17,0-33.8,0-50.9c-1.3-0.1-2.4-0.2-3.5-0.2
			c-20.9,0-41.8,0-62.7-0.1c-2.6,0-3.9,0.5-4.5,3.5c-3.1,15.6-5.1,31.3-5.8,47.6C235.7,287.1,260.9,287.1,286.4,287.1z M214.8,355.6
			c1.3,8.6,1.6,8.5,10.3,8.5c18.8,0,37.6,0,56.3,0c1.5,0,3,0,4.8,0c0-17,0-33.8,0-50.9c-25.2,0-50.5,0-77.1,0
			C211.1,327.6,212.7,341.6,214.8,355.6z M338.2,450.3c17.9-16.4,28.5-37.3,36.7-60.2c-21.1,0-41.8,0-62.6,0c0,24.9,0,49.7,0,75
			C322.5,462.1,330.8,457,338.2,450.3z M224.5,390c-0.1,0.4-0.3,0.8-0.2,1.1c7.4,21.1,17.4,40.6,33.5,56.6
			c7.2,7.2,15.4,12.7,25,16.2c1,0.4,2.1,0.6,3.5,1c0-25,0-49.8,0-74.9C265.7,390,245.2,390,224.5,390z M374.2,210.2
			c0.1-0.4,0.3-0.8,0.2-1.1c-7.4-21.4-17.6-41.1-34-57.2c-8.6-8.4-19.6-14.9-28-16.5c0,24.8,0,49.6,0,74.8
			C333.2,210.2,353.7,210.2,374.2,210.2z M258,152.2c-16.2,16-26.3,35.7-33.7,56.9c-0.1,0.2,0,0.5,0.1,1c20.5,0,41.1,0,61.9,0
			c0-24.8,0-49.6,0-74.9C275.1,138.5,266,144.3,258,152.2z M415.2,287c16.3,0,33,0,50.3,0c-0.3-3.2-0.6-6.4-1-9.5
			c-1.7-13.3-5.3-26.2-10.1-38.7c-0.7-1.9-1.6-2.8-3.7-2.8c-13.5,0.1-27,0.1-40.5,0.1c-0.5,0-1,0.1-1.2,0.2
			C411,253.3,413.1,270,415.2,287z M444.4,364.1c9.2,0,9.7,0.1,12.1-8.8c3.3-12,5.8-24.3,8.5-36.4c0.4-1.8,0.3-3.7,0.4-5.8
			c-17,0-33.7,0-50.2,0c-2.1,16.9-4.2,33.7-6.3,51C420.7,364.1,432.5,364.1,444.4,364.1z M183.5,287.1c2.1-17,4.2-33.8,6.3-51
			c-1.5,0-3.3,0-5.2,0c-12,0-24,0-36,0c-1.8,0-3.3-0.1-4.1,2.2c-5.7,14.9-9.7,30.2-11.1,46.1c-0.1,0.8,0,1.7,0,2.7
			C150.4,287.1,167.1,287.1,183.5,287.1z M139.6,347.3c1.5,4.9,3.2,9.7,5,14.5c0.4,1,1.8,2.2,2.8,2.3c14,0.1,28,0,42,0
			c0.2,0,0.5-0.2,0.4-0.2c-2.1-16.9-4.2-33.7-6.3-50.7c-16.3,0-33,0-50.2,0C134,325,136.2,336.2,139.6,347.3z M384.5,170.6
			c5.6,11.8,10.6,24,15.6,36.1c1.1,2.8,2.4,3.8,5.4,3.7c9.9-0.2,19.8-0.1,29.7-0.1c1.2,0,2.4-0.1,4.6-0.2
			c-17.1-26.3-39.1-45.8-67.5-60C376.7,157.6,381.2,163.8,384.5,170.6z M222,442.6c-10.1-15.3-17.7-31.8-23.4-49.3
			c-0.9-2.7-2.1-3.7-5-3.6c-10.1,0.2-20.2,0.1-30.4,0.1c-1.1,0-2.2,0.1-3.3,0.2c5.3,16.2,48.4,54.5,66.7,59.2
			C224.8,446.8,223.4,444.7,222,442.6z M159.1,210.1c1.9,0.1,3.1,0.2,4.3,0.2c9.9,0,19.8-0.1,29.6,0.1c3.1,0.1,4.6-0.8,5.6-3.9
			c5.6-17.3,13.2-33.7,23.3-48.9c1.4-2.2,2.9-4.3,4.4-6.4C198.2,164.3,176.2,183.9,159.1,210.1z M439.6,390.2
			c-1.5-0.2-2.5-0.4-3.4-0.4c-10.5,0-21,0-31.5-0.1c-2.1,0-3.4,0.5-4.1,2.7c-6.5,19.9-15.2,38.6-27.5,55.6c-0.2,0.3-0.2,0.6-0.6,1.8
			C400.5,435.9,422.5,416.3,439.6,390.2z"/>
	</g>
</g>
</svg>
