<?xml version="1.0" encoding="utf-8"?>
<!-- Generator: Adobe Illustrator 21.0.0, SVG Export Plug-In . SVG Version: 6.00 Build 0)  -->
<svg version="1.1" id="Capa_1" xmlns="http://www.w3.org/2000/svg" xmlns:xlink="http://www.w3.org/1999/xlink" x="0px" y="0px"
	 viewBox="0 0 365.8 301.7" style="enable-background:new 0 0 365.8 301.7;" xml:space="preserve">
<style type="text/css">
	.st0{fill:#00506B;}
	.st1{fill:#7E7E80;}
	.st2{fill:#00AD88;}
</style>
<g>
	<path class="st0" d="M252.4,215.7c0.2,3.5,0.3,7.1,0.3,10.7c0,12.5-1.3,24.7-3.7,36.5c2.3-0.8,4.8-1.3,7.4-1.3
		c12.2,0,22.1,9.9,22.1,22.1h53.8L252.4,215.7z"/>
	<path class="st1" d="M137.4,183.7c-2.2-9.1-5.1-18-8.6-26.6c-0.8-1.7-1.5-3.4-2.2-5.1c-8.8-21.4-13.7-44.7-13.7-69.3
		c0-19,2.9-37.3,8.3-54.5h0l0,0c1.1-3.5,2.4-6.9,3.7-10.3H35.5c-1.3,3.4-2.6,6.8-3.7,10.3l0,0h0c-2.8,9.1-5,18.4-6.4,28
		c-1.3,8.7-1.9,17.5-1.9,26.5c0,25,5.1,48.9,14.2,70.6c0.4,0.8,0.7,1.6,1.1,2.5c9.1,21.7,14.2,45.5,14.2,70.6
		c0,13.4-1.5,26.4-4.3,39L137.4,183.7z"/>
	<path class="st0" d="M242.5,226.4c0-24.5-4.9-47.9-13.7-69.3c-0.8-1.7-1.5-3.4-2.2-5.1c-8.8-21.4-13.7-44.7-13.7-69.3
		c0-19,2.9-37.3,8.3-54.5h0l0,0c1.1-3.5,2.4-6.9,3.7-10.3l-89.5,0c-1.3,3.4-2.6,6.8-3.7,10.3h0c-2.8,9.1-5,18.4-6.4,28
		c-1.3,8.7-1.9,17.5-1.9,26.5c0,25,5.1,48.9,14.2,70.6c0.4,0.8,0.7,1.6,1.1,2.5c4.2,10.1,7.6,20.7,10,31.6L44,283.7h55.3
		c0,0,0,0,0,0c0-12.2,9.9-22.1,22.1-22.1c12.2,0,22.1,9.9,22.1,22.1c0,0,0,0,0,0h0h89.6h0.2l-0.1-0.2c3.3-9.9,5.7-20.1,7.3-30.6
		C241.8,244.3,242.5,235.4,242.5,226.4z"/>
	<path class="st2" d="M328.7,157.1c-0.8-1.7-1.5-3.4-2.2-5.1c-8.8-21.4-13.7-44.7-13.7-69.3c0-19,2.9-37.3,8.3-54.5h0l0,0
		c1.1-3.5,2.4-6.9,3.7-10.3l-89.5,0c-1.3,3.4-2.6,6.8-3.7,10.3h0c-2.8,9.1-5,18.4-6.4,28c-1.3,8.7-1.9,17.5-1.9,26.5
		c0,25,5.1,48.9,14.2,70.6c0.4,0.8,0.7,1.6,1.1,2.5c6,14.2,10.2,29.4,12.4,45.2l85.2,72.4c1.8-6.7,3.2-13.5,4.2-20.4
		c1.3-8.7,1.9-17.5,1.9-26.5C342.4,201.9,337.5,178.5,328.7,157.1z"/>
</g>
</svg>
