<?xml version="1.0" encoding="utf-8"?>
<!-- Generator: Adobe Illustrator 21.0.0, SVG Export Plug-In . SVG Version: 6.00 Build 0)  -->
<svg version="1.1" id="Capa_1" xmlns="http://www.w3.org/2000/svg" xmlns:xlink="http://www.w3.org/1999/xlink" x="0px" y="0px"
	 viewBox="0 0 600 600" style="enable-background:new 0 0 600 600;" xml:space="preserve">
<style type="text/css">
	.st0{fill:#06506B;}
	.st1{fill:#FFFFFF;}
</style>
<g>
	<g>
		<path class="st0" d="M189.5,569.5H404c88.2,0,160.3-72.1,160.3-160.3V194.8c0-88.2-72.1-160.3-160.3-160.3H189.5
			c-88.2,0-160.3,72.1-160.3,160.3v214.5C29.2,497.4,101.4,569.5,189.5,569.5z"/>
		<g>
			<path class="st1" d="M173.4,161.1c0,0-23.8,181.7,122.3,338l88.5,1.8l10.1-8.5l-56-83.4l-29.2,9.3l-74.5-195.1l29.1-19.4
				l-10.7-99.9h-13.1L173.4,161.1z"/>
			<polygon class="st1" points="273.3,103.1 283,198.7 303.1,192.8 297.6,105.4 			"/>
			<polygon class="st1" points="353,400.2 412.3,482.3 427.1,467.5 375.5,390.6 			"/>
		</g>
	</g>
</g>
</svg>
