<?xml version="1.0" encoding="utf-8"?>
<!-- Generator: Adobe Illustrator 21.0.0, SVG Export Plug-In . SVG Version: 6.00 Build 0)  -->
<svg version="1.1" id="Capa_1" xmlns="http://www.w3.org/2000/svg" xmlns:xlink="http://www.w3.org/1999/xlink" x="0px" y="0px"
	 viewBox="0 0 150 150" style="enable-background:new 0 0 150 150;" xml:space="preserve">
<style type="text/css">
	.st0{fill:#A1A1A1;}
	.st1{fill:#00AD88;}
	.st2{fill:#00506B;}
</style>
<g>
	<g>
		<g>
			<path class="st0" d="M60.3,42.4c-0.2-0.5-0.4-0.9-0.6-1.4C57.3,35.3,56,28.9,56,22.3c0-5.1,0.8-10.1,2.2-14.8H34
				c-0.8,2.5-1.3,5-1.7,7.6c-0.3,2.3-0.5,4.7-0.5,7.2c0,6.8,1.4,13.2,3.8,19.1c0.1,0.2,0.2,0.4,0.3,0.7c2.5,5.9,3.8,12.3,3.8,19.1
				c0,3.6-0.4,7.2-1.2,10.6l24-22.1C62.1,47.2,61.3,44.8,60.3,42.4z"/>
			<path class="st1" d="M117.6,68.4c0.3-2.3,0.5-4.7,0.5-7.2c0-6.6-1.3-13-3.7-18.8c-0.2-0.5-0.4-0.9-0.6-1.4
				c-2.4-5.8-3.7-12.1-3.7-18.8c0-5.1,0.8-10.1,2.2-14.8H88.2c-0.8,2.5-1.3,5-1.7,7.6c-0.3,2.3-0.5,4.7-0.5,7.2
				c0,6.8,1.4,13.2,3.8,19.1c0.1,0.2,0.2,0.4,0.3,0.7c1.6,3.9,2.8,8,3.4,12.2l23.1,19.6C117,72.1,117.4,70.3,117.6,68.4z"/>
			<path class="st2" d="M93.8,58.3c0.1,1,0.1,1.9,0.1,2.9c0,3.4-0.3,6.7-1,9.9c0.6-0.2,1.3-0.4,2-0.4c3.3,0,6,2.7,6,6h14.6
				L93.8,58.3z"/>
			<path class="st2" d="M91.1,61.2c0-6.6-1.3-13-3.7-18.8C87.2,42,87,41.5,86.8,41c-2.4-5.8-3.7-12.1-3.7-18.8
				c0-5.1,0.8-10.1,2.2-14.8H61.1c-0.8,2.5-1.3,5-1.7,7.6c-0.3,2.3-0.5,4.7-0.5,7.2c0,6.8,1.4,13.2,3.8,19.1
				c0.1,0.2,0.2,0.4,0.3,0.7c1.2,2.7,2,5.6,2.7,8.6L37.4,76.7h15c0,0,0,0,0,0c0-3.3,2.7-6,6-6c3.3,0,6,2.7,6,6c0,0,0,0,0,0h0h24.3h0
				l0-0.1c0.9-2.7,1.5-5.4,2-8.3C90.9,66,91.1,63.6,91.1,61.2z"/>
		</g>
		<g>
			<g>
				<path class="st2" d="M32.6,107.9L32.6,107.9c0.3,0,0.6,0.2,0.7,0.6c1.3,4.1,4.2,6.5,8.1,6.5c3.5,0,5.9-2.1,5.9-5
					c0-6.8-15.1-9.5-15.1-18c0-4.2,3.6-7.1,8.8-7.1c1.6,0,2.7,0.2,3.7,0.4s1.7,0.4,2.5,0.4c0.5,0,0.8-0.1,1.1-0.3
					c0.2-0.1,0.4-0.2,0.6-0.2h0c0.5,0,0.9,0.4,0.9,0.8l0.8,5.8c0.1,0.5-0.3,0.9-0.8,0.9l0,0c-0.3,0-0.6-0.2-0.7-0.5
					c-1.5-3.6-4.4-5.7-7.6-5.7c-3.1,0-4.7,1.9-4.7,4c0,6.5,15.1,8.5,15.1,17.9c0,5-4.2,8.4-10.3,8.4c-3.6,0-5.1-0.9-6.4-0.9
					c-0.5,0-0.8,0.1-1.1,0.3c-0.2,0.1-0.4,0.2-0.6,0.2l0,0c-0.5,0-0.8-0.3-0.9-0.8l-1-6.8C31.7,108.3,32.1,107.9,32.6,107.9z"/>
				<g>
					<path class="st2" d="M104,109.9c0,3.7,0.5,4.7,3.6,4.8c0.4,0,0.6,0.3,0.6,0.7l0,0c0,0.4-0.3,0.7-0.7,0.7H95.4
						c-0.4,0-0.7-0.3-0.7-0.7v0c0-0.4,0.3-0.7,0.6-0.7c2.6-0.2,3.2-1.4,3.2-3.9V89.9c0-2.5-0.8-3.5-3.1-3.6c-0.4,0-0.6-0.3-0.6-0.7
						l0,0c0-0.4,0.3-0.7,0.7-0.7h21.8c0.5,0,0.9,0.4,0.9,0.9v4.6c0,0.4-0.3,0.7-0.7,0.7l0,0c-0.4,0-0.6-0.3-0.7-0.6
						c-0.3-2.8-1.3-3.4-5.1-3.4H104v11.1h7.7c2.8,0,3.6-0.4,3.9-2.6c0.1-0.3,0.3-0.6,0.7-0.6h0c0.4,0,0.7,0.3,0.7,0.7v7.8
						c0,0.4-0.3,0.7-0.7,0.7h0c-0.3,0-0.6-0.3-0.7-0.6c-0.4-2.6-1.2-3.2-4.1-3.2H104V109.9z"/>
				</g>
				<path class="st1" d="M92.8,114.7c-0.1-0.2-0.3-0.3-0.5-0.3c-2,0.1-4.2-0.1-6.3-0.8l0,0c-1.5-0.5-3-1.2-4.3-2.1
					c-0.7-0.5-1.5-1-2.2-1.6c2.6-3.2,3.9-6.9,3.8-10.2c0-0.3-0.2-0.5-0.5-0.6c-1.8-0.4-3.6-0.6-5.3-0.4c-0.2,0-0.3,0.3-0.1,0.4
					c0.6,0.2,1.1,0.5,1.7,0.8c0.7,0.4,1.1,1.1,1.2,1.8c0.3,2.4-0.6,4.9-2.3,7c-5.2-4-9.8-8.8-13.7-14c-0.2-0.3-0.4-0.6-0.6-0.9
					c-1.4-2.7-0.2-6,2.5-7.4c2.8-1.4,6.1-0.4,7.5,2.3c0.5,1,0.7,2,0.6,3c0,0.3,0.4,0.4,0.5,0.1c0.9-2.1,1.1-4.3,0.3-6.3
					c0-0.1-0.1-0.2-0.1-0.3c-0.1-0.2-0.3-0.4-0.5-0.4c-3.2-1-6.9-0.7-10.1,0.6c-1.3,0.5-2.5,1.2-3.4,2.3c-0.8,1-1.4,2.2-1.5,3.5
					c0,0.3-0.1,0.6-0.1,0.9c0,2.1,0.9,4,2.4,5.3c-3.7,2.4-6.8,6.6-5.8,11.2c0.6,2.6,2.5,4.6,4.9,5.6c2.7,1.2,5.7,1.4,8.5,0.9
					c1.4-0.2,2.8-0.7,4.1-1.2c0.6-0.3,1.3-0.6,1.9-0.9c0.2-0.1,1.8-1.2,1.9-1.2c1.1,0.8,2.3,1.5,3.5,2.3c3,1.9,7.3,2.4,11.7,1.1
					C92.7,115.5,92.9,115.1,92.8,114.7z M75.8,111.1c-0.2,0.2-0.5,0.4-0.7,0.5c-0.6,0.4-1.2,0.8-1.8,1.1c-0.2,0.1-0.3,0.1-0.5,0.2
					c-4.5,2-9.5,1.2-11.9-2.3c-2-2.9-1.7-6.9,0.5-10.2c0,0,0,0,0,0c0.4-0.6,0.9-1.1,1.4-1.6C66.5,103.4,71,107.5,75.8,111.1z"/>
			</g>
		</g>
		<g>
			<g>
				<g>
					<path class="st2" d="M32,130.4L32,130.4c0.1,0,0.2,0.1,0.2,0.2c0.4,1.3,1.3,2.1,2.6,2.1c1.1,0,1.9-0.7,1.9-1.6
						c0-2.2-4.8-3-4.8-5.8c0-1.3,1.2-2.3,2.8-2.3c0.5,0,0.9,0.1,1.2,0.1s0.6,0.1,0.8,0.1c0.2,0,0.3,0,0.4-0.1c0.1,0,0.1-0.1,0.2-0.1
						l0,0c0.1,0,0.3,0.1,0.3,0.3l0.3,1.9c0,0.2-0.1,0.3-0.2,0.3l0,0c-0.1,0-0.2-0.1-0.2-0.2c-0.5-1.1-1.4-1.8-2.4-1.8
						c-1,0-1.5,0.6-1.5,1.3c0,2.1,4.8,2.7,4.8,5.7c0,1.6-1.3,2.7-3.3,2.7c-1.1,0-1.6-0.3-2-0.3c-0.1,0-0.3,0-0.3,0.1
						c-0.1,0-0.1,0.1-0.2,0.1l0,0c-0.1,0-0.3-0.1-0.3-0.3l-0.3-2.2C31.8,130.5,31.9,130.4,32,130.4z"/>
					<path class="st2" d="M39,124.5h3.4c0.1,0,0.2,0.1,0.2,0.2l0,0c0,0.1-0.1,0.2-0.2,0.2c-0.8,0-1,0.3-1,1.2v5.3c0,1,0.2,1.3,1,1.3
						c0.1,0,0.2,0.1,0.2,0.2l0,0c0,0.1-0.1,0.2-0.2,0.2H39c-0.1,0-0.2-0.1-0.2-0.2l0,0c0-0.1,0.1-0.2,0.2-0.2c0.9,0,0.9-0.4,0.9-1.2
						v-5.5c0-0.7-0.2-1-0.9-1c-0.1,0-0.2-0.1-0.2-0.2l0,0C38.9,124.5,38.9,124.5,39,124.5z"/>
					<path class="st2" d="M45.7,124.6l5.8,6.3V126c0-1-0.1-1.2-1.1-1.2c-0.1,0-0.2-0.1-0.2-0.2v0c0-0.1,0.1-0.2,0.2-0.2h2.9
						c0.1,0,0.2,0.1,0.2,0.2v0c0,0.1-0.1,0.2-0.2,0.2c-0.8,0-1,0.2-1,1.2v6.5c0,0.3-0.2,0.5-0.5,0.5h0c-0.1,0-0.3-0.1-0.4-0.2
						L45,126v5.2c0,1,0.1,1.4,1.2,1.3c0.1,0,0.2,0.1,0.2,0.2l0,0c0,0.1-0.1,0.2-0.2,0.2h-2.8c-0.1,0-0.2-0.1-0.2-0.2l0,0
						c0-0.1,0.1-0.2,0.2-0.2c0.8,0,0.9-0.3,0.9-1.2v-6.5c0-0.2,0.2-0.4,0.4-0.4h0.7C45.5,124.5,45.6,124.5,45.7,124.6z"/>
					<path class="st2" d="M54.2,124.5h3.4c0.1,0,0.2,0.1,0.2,0.2l0,0c0,0.1-0.1,0.2-0.2,0.2c-0.8,0-1,0.3-1,1.2v3.7
						c0,1.8,1.2,2.6,2.9,2.6c1.5,0,2.9-0.7,2.9-2.7V126c0-1-0.2-1.2-1.1-1.2c-0.1,0-0.2-0.1-0.2-0.2l0,0c0-0.1,0.1-0.2,0.2-0.2h2.9
						c0.1,0,0.2,0.1,0.2,0.2v0c0,0.1-0.1,0.2-0.2,0.2c-0.9,0-1,0.3-1,1.2v3.8c0,2.1-1.6,3.4-4,3.4c-2.5,0-3.9-1.2-3.9-3.5v-3.8
						c0-0.8-0.2-1-1-1c-0.1,0-0.2-0.1-0.2-0.2v0C54.1,124.5,54.1,124.5,54.2,124.5z"/>
					<path class="st2" d="M64.7,130.7L64.7,130.7c0.1,0,0.2,0.1,0.2,0.2c0.4,1.2,1.2,1.8,2.3,1.8c1,0,1.7-0.6,1.7-1.4
						c0-1.9-4.2-2.7-4.2-5c0-1.2,1-2,2.4-2c0.4,0,0.8,0.1,1,0.1c0.3,0.1,0.5,0.1,0.7,0.1c0.1,0,0.2,0,0.3-0.1c0,0,0.1-0.1,0.1-0.1
						h0.1c0.1,0,0.2,0.1,0.2,0.2l0.2,1.7c0,0.1-0.1,0.2-0.2,0.2h0c-0.1,0-0.2-0.1-0.2-0.1c-0.4-1-1.2-1.6-2.1-1.6
						c-0.9,0-1.3,0.5-1.3,1.1c0,1.8,4.2,2.4,4.2,5c0,1.4-1.2,2.4-2.9,2.4c-1,0-1.4-0.2-1.8-0.2c-0.1,0-0.2,0-0.3,0.1
						c0,0-0.1,0-0.1,0H65c-0.1,0-0.2-0.1-0.2-0.2l-0.3-1.9C64.5,130.8,64.6,130.7,64.7,130.7z"/>
				</g>
				<g>
					<path class="st2" d="M86.6,131c0,1.2,0.2,1.5,1.2,1.5c0.1,0,0.2,0.1,0.2,0.2l0,0c0,0.1-0.1,0.2-0.2,0.2h-3.9
						c-0.1,0-0.2-0.1-0.2-0.2v0c0-0.1,0.1-0.2,0.2-0.2c0.8-0.1,1-0.5,1-1.2v-6.7c0-0.8-0.3-1.1-1-1.2c-0.1,0-0.2-0.1-0.2-0.2l0,0
						c0-0.1,0.1-0.2,0.2-0.2h7c0.2,0,0.3,0.1,0.3,0.3v1.5c0,0.1-0.1,0.2-0.2,0.2l0,0c-0.1,0-0.2-0.1-0.2-0.2
						c-0.1-0.9-0.4-1.1-1.6-1.1h-2.5v3.5h2.5c0.9,0,1.1-0.1,1.2-0.8c0-0.1,0.1-0.2,0.2-0.2h0c0.1,0,0.2,0.1,0.2,0.2v2.5
						c0,0.1-0.1,0.2-0.2,0.2h0c-0.1,0-0.2-0.1-0.2-0.2c-0.1-0.8-0.4-1-1.3-1h-2.4V131z"/>
					<path class="st2" d="M96.5,124.5c0.2,0,0.3,0.1,0.3,0.2l2.5,6.7c0.4,1,0.5,1.2,1.2,1.2c0.1,0,0.2,0.1,0.2,0.2v0
						c0,0.1-0.1,0.2-0.2,0.2h-3.5c-0.1,0-0.2-0.1-0.2-0.2l0,0c0-0.1,0.1-0.2,0.2-0.2c0.9,0,1.1-0.1,1.1-0.5c0-0.1-0.1-0.4-0.2-0.7
						l-0.6-1.7h-3l-0.6,1.8c-0.1,0.3-0.1,0.4-0.1,0.6c0,0.4,0.2,0.5,1.1,0.5c0.1,0,0.2,0.1,0.2,0.2l0,0c0,0.1-0.1,0.2-0.2,0.2h-2.8
						c-0.1,0-0.2-0.1-0.2-0.2v0c0-0.1,0.1-0.2,0.2-0.2c0.7,0,0.9-0.2,1.2-1.2l2.4-6.7c0.1-0.1,0.2-0.2,0.3-0.2H96.5z M97,129.1
						l-1.3-3.4l-1.2,3.4H97z"/>
					<path class="st2" d="M109,132.8c0,0.1-0.1,0.1-0.2,0.1c-0.1,0-0.2,0-0.3,0c-0.6,0-1.5,0.3-2.6,0.3c-3,0-4.7-1.8-4.7-4.2
						c0-2.3,1.5-4.5,4.8-4.5c1.4,0,2.4,0.4,2.8,0.4c0.1,0,0.1,0,0.2-0.1c0,0,0.1,0,0.1,0h0c0.1,0,0.2,0.1,0.2,0.2l0.1,1.7
						c0,0.1-0.1,0.2-0.2,0.2l0,0c-0.1,0-0.2-0.1-0.2-0.1c-0.5-1.3-1.5-2-2.9-2c-2,0-3.3,1.5-3.3,3.7c0,2.3,1.5,4.1,3.5,4.1
						c1.2,0,2.4-0.7,3.1-1.9c0-0.1,0.1-0.1,0.2-0.1l0,0c0.1,0,0.2,0.1,0.2,0.3L109,132.8z"/>
					<path class="st2" d="M110.8,132.8L110.8,132.8c0-0.1,0.1-0.2,0.2-0.2c0.9,0,1.2-0.2,1.2-0.9v-5.9c0-0.8-0.4-0.9-1.2-0.9
						c-0.1,0-0.2-0.1-0.2-0.2l0,0c0-0.1,0.1-0.2,0.2-0.2h6.3c0.2,0,0.3,0.2,0.4,0.3l0.1,1.5c0,0.1-0.1,0.2-0.2,0.2h0
						c-0.1,0-0.2-0.1-0.2-0.2l0-0.1c-0.3-1.1-0.5-1.2-1.3-1.2h-2.4v3.2h2.1c0.7,0,0.9-0.1,1-0.9c0-0.1,0.1-0.2,0.2-0.2l0,0
						c0.1,0,0.2,0.1,0.2,0.2v2.4c0,0.1-0.1,0.2-0.2,0.2h0c-0.1,0-0.2-0.1-0.2-0.2c-0.1-0.8-0.3-0.9-1-0.9h-2.1v2.5
						c0,0.8,0.1,1,0.8,1h1.5c1.3,0,1.6-0.2,1.9-1.4c0-0.1,0.1-0.1,0.2-0.1l0,0c0.1,0,0.2,0.1,0.2,0.2l-0.1,1.6
						c0,0.2-0.2,0.3-0.4,0.3h-6.8C110.8,133,110.8,132.9,110.8,132.8z"/>
				</g>
				<path class="st1" d="M83.1,132.6c0-0.1-0.1-0.1-0.2-0.1c-0.6,0-1.3,0-2-0.3l0,0c-0.5-0.2-0.9-0.4-1.4-0.7
					c-0.2-0.2-0.5-0.3-0.7-0.5c0.8-1,1.2-2.2,1.2-3.2c0-0.1-0.1-0.2-0.1-0.2c-0.6-0.1-1.2-0.2-1.7-0.1c-0.1,0-0.1,0.1,0,0.1
					c0.2,0.1,0.4,0.2,0.5,0.3c0.2,0.1,0.4,0.3,0.4,0.6c0.1,0.8-0.2,1.6-0.7,2.2c-1.6-1.3-3.1-2.8-4.4-4.5c-0.1-0.1-0.1-0.2-0.2-0.3
					c-0.4-0.9-0.1-1.9,0.8-2.4c0.9-0.5,2-0.1,2.4,0.7c0.2,0.3,0.2,0.6,0.2,1c0,0.1,0.1,0.1,0.1,0c0.3-0.7,0.3-1.4,0.1-2
					c0,0,0-0.1,0-0.1c0-0.1-0.1-0.1-0.1-0.1c-1-0.3-2.2-0.2-3.2,0.2c-0.4,0.2-0.8,0.4-1.1,0.7c-0.3,0.3-0.4,0.7-0.5,1.1
					c0,0.1,0,0.2,0,0.3c0,0.7,0.3,1.3,0.8,1.7c-1.2,0.8-2.2,2.1-1.9,3.6c0.2,0.8,0.8,1.5,1.6,1.8c0.8,0.4,1.8,0.5,2.7,0.3
					c0.5-0.1,0.9-0.2,1.3-0.4c0.2-0.1,0.4-0.2,0.6-0.3c0.1,0,0.6-0.4,0.6-0.4c0.4,0.3,0.7,0.5,1.1,0.7c1,0.6,2.3,0.8,3.7,0.4
					C83.1,132.8,83.1,132.7,83.1,132.6z M77.6,131.4c-0.1,0.1-0.1,0.1-0.2,0.2c-0.2,0.1-0.4,0.2-0.6,0.3c0,0-0.1,0-0.1,0.1
					c-1.4,0.6-3,0.4-3.8-0.7c-0.7-0.9-0.5-2.2,0.1-3.3c0,0,0,0,0,0c0.1-0.2,0.3-0.4,0.4-0.5C74.7,128.9,76.1,130.3,77.6,131.4z"/>
			</g>
		</g>
	</g>
	<g>
		<g>
			<g>
				<path class="st0" d="M36.5,142.3c-0.1,0-0.2-0.1-0.3-0.1c-0.4,0-0.9,0.2-1.6,0.2c-1.9,0-2.9-1.1-2.9-2.5c0-1.4,0.9-2.7,3-2.7
					c0.9,0,1.5,0.3,1.7,0.3c0.1,0,0.1,0,0.1-0.1h0.2l0,1.3h-0.2c-0.3-0.8-0.9-1.3-1.8-1.3c-1.2,0-2,0.9-2,2.3c0,1.4,0.9,2.5,2.2,2.5
					c0.8,0,1.5-0.4,1.9-1.2h0.2L36.5,142.3z"/>
				<path class="st0" d="M48.4,142.3v-0.2c0.6,0,0.8-0.1,0.8-0.7v-3.2c0-0.5-0.1-0.7-0.8-0.7v-0.2H51v0.2c-0.9,0-1,0-1,0.6v3.4
					c0,0.3,0.1,0.4,0.4,0.4h0.8c0.7,0,0.7,0,1.3-0.9h0.2l-0.6,1.2H48.4z"/>
				<path class="st0" d="M65.8,137.3H68v0.2c-0.5,0-0.7,0.1-0.7,0.7v3.1c0,0.6,0.1,0.8,0.7,0.7v0.2h-2.2v-0.2c0.6,0,0.7-0.2,0.7-0.7
					v-3.3c0-0.4-0.1-0.6-0.7-0.6V137.3z"/>
				<path class="st0" d="M81.1,138.2v3.1c0,0.6,0.1,0.8,0.8,0.8v0.2H80v-0.2c0.6,0,0.7-0.2,0.7-0.7v-3.6c-0.2-0.2-0.4-0.2-0.7-0.3
					v-0.2h1.5l3.6,3.8v-2.9c0-0.6-0.1-0.7-0.8-0.7v-0.2h1.9v0.2c-0.5,0-0.7,0.1-0.7,0.7v4.1h-0.4L81.1,138.2z"/>
				<path class="st0" d="M98.2,137.3h2.2v0.2c-0.5,0-0.7,0.1-0.7,0.7v3.1c0,0.6,0.1,0.8,0.7,0.7v0.2h-2.2v-0.2
					c0.6,0,0.7-0.2,0.7-0.7v-3.3c0-0.4-0.1-0.6-0.7-0.6V137.3z"/>
				<path class="st0" d="M117.7,142.3c-0.1,0-0.2-0.1-0.3-0.1c-0.4,0-0.9,0.2-1.6,0.2c-1.9,0-2.9-1.1-2.9-2.5c0-1.4,0.9-2.7,3-2.7
					c0.9,0,1.5,0.3,1.7,0.3c0.1,0,0.1,0,0.1-0.1h0.2l0,1.3h-0.2c-0.3-0.8-0.9-1.3-1.8-1.3c-1.2,0-2,0.9-2,2.3c0,1.4,0.9,2.5,2.2,2.5
					c0.8,0,1.5-0.4,1.9-1.2h0.2L117.7,142.3z"/>
			</g>
		</g>
	</g>
</g>
</svg>
