<?xml version="1.0" encoding="utf-8"?>
<!-- Generator: Adobe Illustrator 21.0.0, SVG Export Plug-In . SVG Version: 6.00 Build 0)  -->
<svg version="1.1" id="Capa_1" xmlns="http://www.w3.org/2000/svg" xmlns:xlink="http://www.w3.org/1999/xlink" x="0px" y="0px"
	 viewBox="0 0 792 612" style="enable-background:new 0 0 792 612;" xml:space="preserve">
<style type="text/css">
	.st0{fill:#B7C8CF;}
	.st1{fill:#C1E5DA;}
	.st2{fill:#E0E0E0;}
</style>
<g>
	<g>
		<g>
			<g>
				<g>
					<g>
						<path class="st0" d="M302.5,240.7L302.5,240.7c1.5,0,2.9,1,3.3,2.5c5.9,19,19.2,29.7,37.3,29.7c16,0,27.2-9.6,27.2-23.1
							c0-31.4-69.2-43.7-69.2-82.7c0-19.3,16.7-32.7,40.2-32.7c7.2,0,12.5,0.9,16.9,1.8s7.9,1.8,11.6,1.8c2.3,0,3.7-0.4,5.1-1.6
							c0.8-0.7,1.8-1.1,2.8-1.1l0,0c2.1,0,4,1.6,4.3,3.8l3.7,26.7c0.3,2.2-1.4,4.2-3.6,4.2l0,0c-1.5,0-2.8-0.9-3.3-2.3
							c-6.9-16.3-20-26.2-34.9-26.2c-14.1,0-21.5,8.5-21.5,18.4c0,30,69.4,39,69.4,82.2c0,23.1-19.1,38.8-47.2,38.8
							c-16.5,0-23.3-4-29.4-4c-2.1,0-3.7,0.4-5,1.5c-0.7,0.6-1.6,0.9-2.6,0.9l0,0c-2.1,0-3.8-1.6-4.1-3.7l-4.4-31.1
							C298.8,242.6,300.4,240.7,302.5,240.7z"/>
						<g>
							<path class="st0" d="M627.7,253.4c0,17.1,2.4,21.5,16.6,22c1.7,0.1,3,1.4,3,3.1l0,0c0,1.7-1.4,3.1-3.1,3.1h-55.9
								c-1.7,0-3.1-1.4-3.1-3.1v0c0-1.6,1.3-3,2.9-3.1c11.9-0.8,14.5-6.5,14.5-17.9v-95.9c0-11.6-3.8-16.1-14.4-16.7
								c-1.6-0.1-2.9-1.5-2.9-3.1l0,0c0-1.7,1.4-3.2,3.1-3.2h100c2.3,0,4.2,1.9,4.2,4.3v21.2c0,1.8-1.4,3.3-3.2,3.3l0,0
								c-1.6,0-3-1.2-3.2-2.9c-1.5-12.9-6.1-15.5-23.2-15.5h-35.4v50.9h35.4c12.7,0,16.4-2,17.9-12c0.2-1.6,1.6-2.8,3.1-2.8h0.1
								c1.8,0,3.2,1.5,3.2,3.3v35.8c0,1.8-1.4,3.3-3.2,3.3h-0.1c-1.6,0-2.9-1.2-3.2-2.8c-1.7-11.9-5.6-14.5-19-14.5h-34.3V253.4z"/>
						</g>
						<path class="st1" d="M576.2,274.7c-0.4-0.9-1.3-1.5-2.3-1.4c-9.2,0.6-19.1-0.5-29-3.6l-0.2-0.1c-7-2.2-13.6-5.5-19.7-9.6
							c-3.4-2.4-6.8-4.8-10.1-7.2c11.8-14.5,17.9-31.7,17.5-46.7c0-1.3-0.9-2.3-2.2-2.6c-8.4-2-16.7-2.6-24.4-2
							c-0.9,0.1-1.2,1.4-0.3,1.7c2.7,1.1,5.2,2.4,7.7,3.7c3.1,1.7,5.1,4.8,5.5,8.4c1.1,11-2.9,22.4-10.7,32.2
							c-23.7-18.6-44.9-40.2-62.9-64.2c-1-1.2-1.8-2.5-2.5-4c-6.3-12.2-1.1-27.5,11.5-34c12.7-6.5,28.1-1.9,34.4,10.4
							c2.3,4.4,3,9.1,2.5,13.7c-0.1,1.3,1.6,1.7,2.1,0.5c4.2-9.5,4.9-19.6,1.4-28.9c-0.1-0.4-0.3-0.8-0.5-1.2c-0.4-1-1.2-1.7-2.2-2
							c-14.9-4.5-31.8-3.2-46.2,2.6c-6.1,2.5-11.5,5.6-15.8,10.7c-3.9,4.6-6.3,10.3-7.1,16.3c-0.2,1.3-0.3,2.7-0.3,4
							c0,9.8,4.3,18.5,11.2,24.4c-16.9,11.1-31.4,30.3-26.8,51.6c2.6,12.1,11.5,20.9,22.5,25.9c12.2,5.6,26,6.5,39.1,4.3
							c6.5-1.1,12.9-3,19-5.5c2.9-1.2,5.8-2.5,8.6-4c0.8-0.5,8.3-5.5,8.5-5.3c5.2,3.6,10.5,7.1,15.9,10.5
							c13.7,8.5,33.6,10.9,53.7,5.3C576,278.1,576.8,276.3,576.2,274.7z M497.9,258c-1.1,0.8-2.1,1.7-3.2,2.5
							c-2.7,1.9-5.5,3.5-8.3,4.9c-0.7,0.3-1.4,0.6-2.1,1c-20.7,9.2-43.7,5.3-54.8-10.6c-9.4-13.4-7.9-31.6,2.1-46.7
							c0,0.1,0,0.1,0,0.2c1.8-2.6,3.9-5.1,6.3-7.5C455.4,222.5,475.9,241.7,497.9,258z"/>
					</g>
				</g>
			</g>
		</g>
	</g>
	<g>
		<path class="st0" d="M235.3,246.1c0.1,2.1,0.2,4.1,0.2,6.2c0,7.3-0.7,14.4-2.2,21.2c1.4-0.5,2.8-0.8,4.3-0.8
			c7.1,0,12.9,5.8,12.9,12.9h31.3L235.3,246.1z"/>
		<path class="st2" d="M168.5,227.4c-1.3-5.3-2.9-10.5-5-15.5c-0.4-1-0.9-2-1.3-3c-5.1-12.4-8-26-8-40.3c0-11,1.7-21.7,4.8-31.7h0
			l0,0c0.7-2,1.4-4,2.2-6h-52.1c-0.8,2-1.5,4-2.2,6l0,0h0c-1.7,5.3-2.9,10.7-3.7,16.3c-0.7,5-1.1,10.2-1.1,15.4
			c0,14.6,2.9,28.4,8.3,41.1c0.2,0.5,0.4,0.9,0.6,1.4c5.3,12.6,8.3,26.5,8.3,41.1c0,7.8-0.9,15.4-2.5,22.7L168.5,227.4z"/>
		<path class="st0" d="M229.6,252.3c0-14.3-2.8-27.9-8-40.3c-0.4-1-0.9-2-1.3-3c-5.1-12.4-8-26-8-40.3c0-11,1.7-21.7,4.8-31.7h0l0,0
			c0.7-2,1.4-4,2.2-6l-52.1,0c-0.8,2-1.5,4-2.2,6h0c-1.7,5.3-2.9,10.7-3.7,16.3c-0.7,5-1.1,10.2-1.1,15.4c0,14.6,2.9,28.4,8.3,41.1
			c0.2,0.5,0.4,0.9,0.6,1.4c2.5,5.9,4.4,12,5.8,18.4l-60.9,56h32.1c0,0,0,0,0,0c0-7.1,5.8-12.9,12.9-12.9c7.1,0,12.9,5.8,12.9,12.9
			c0,0,0,0,0,0h0h52.2h0.1l-0.1-0.1c1.9-5.7,3.3-11.7,4.2-17.8C229.2,262.7,229.6,257.5,229.6,252.3z"/>
		<path class="st1" d="M279.7,212c-0.4-1-0.9-2-1.3-3c-5.1-12.4-8-26-8-40.3c0-11,1.7-21.7,4.8-31.7h0l0,0c0.7-2,1.4-4,2.2-6
			l-52.1,0c-0.8,2-1.5,4-2.2,6h0c-1.7,5.3-2.9,10.7-3.7,16.3c-0.7,5-1.1,10.2-1.1,15.4c0,14.6,2.9,28.4,8.3,41.1
			c0.2,0.5,0.4,0.9,0.6,1.4c3.5,8.3,5.9,17.1,7.2,26.3l49.6,42.1c1-3.9,1.9-7.8,2.5-11.9c0.7-5,1.1-10.2,1.1-15.4
			C287.7,238,284.9,224.4,279.7,212z"/>
	</g>
	<g>
		<path class="st0" d="M104.1,351.6L104.1,351.6c0.6,0,1.1,0.4,1.3,1c2.4,7.6,7.7,11.9,14.9,11.9c6.4,0,10.9-3.8,10.9-9.2
			c0-12.5-27.6-17.5-27.6-33c0-7.7,6.7-13.1,16.1-13.1c2.9,0,5,0.4,6.8,0.7c1.8,0.4,3.2,0.7,4.7,0.7c0.9,0,1.5-0.2,2-0.6
			c0.3-0.3,0.7-0.4,1.1-0.4l0,0c0.9,0,1.6,0.6,1.7,1.5l1.5,10.7c0.1,0.9-0.6,1.7-1.4,1.7l0,0c-0.6,0-1.1-0.4-1.3-0.9
			c-2.7-6.5-8-10.4-13.9-10.4c-5.6,0-8.6,3.4-8.6,7.3c0,12,27.7,15.6,27.7,32.8c0,9.2-7.6,15.5-18.9,15.5c-6.6,0-9.3-1.6-11.8-1.6
			c-0.8,0-1.5,0.2-2,0.6c-0.3,0.2-0.7,0.4-1,0.4l0,0c-0.8,0-1.5-0.6-1.7-1.5l-1.8-12.4C102.6,352.3,103.2,351.6,104.1,351.6z"/>
		<path class="st0" d="M154.8,317.6h19.3c0.6,0,1,0.5,1,1.1l0,0c0,0.6-0.4,1-1,1.1c-4.3,0.2-5.6,1.5-5.6,6.7v30.4
			c0,5.5,0.9,7.2,5.6,7.3c0.6,0,1,0.5,1,1.1l0,0c0,0.6-0.5,1.1-1,1.1h-19.3c-0.6,0-1-0.5-1-1.1l0,0c0-0.6,0.5-1,1-1.1
			c5.1-0.1,5.3-2.5,5.3-6.7v-31.8c0-3.9-0.9-5.7-5.3-5.9c-0.6,0-1-0.5-1-1.1l0,0C153.7,318.1,154.2,317.6,154.8,317.6z"/>
		<path class="st0" d="M203.6,318.4l33.5,36.1v-28c0-5.6-0.8-6.7-6.6-6.7c-0.6,0-1-0.5-1-1.1v0c0-0.6,0.5-1.1,1-1.1H247
			c0.6,0,1,0.5,1,1.1v0c0,0.6-0.4,1-1,1.1c-4.3,0.1-5.7,1.3-5.7,6.9v37.2c0,1.6-1.3,3-2.9,3l0,0c-0.8,0-1.6-0.3-2.1-0.9l-36.7-39.4
			v30c0,5.8,0.7,7.8,6.6,7.7c0.6,0,1,0.5,1,1l0,0c0,0.6-0.5,1-1,1H190c-0.6,0-1-0.5-1-1.1l0,0c0-0.6,0.5-1,1-1.1
			c4.6-0.1,5.4-2,5.4-6.7v-37.3c0-1.4,1.1-2.5,2.5-2.5h3.9C202.5,317.6,203.1,317.9,203.6,318.4z"/>
		<path class="st0" d="M262.9,317.6h19.7c0.6,0,1,0.5,1,1.1l0,0c0,0.6-0.4,1-1,1.1c-4.8,0.2-5.7,1.6-5.7,6.7v21
			c0,10.4,6.8,15.2,16.4,15.2c8.5,0,16.5-3.8,16.5-15.3v-20.9c0-5.7-1-6.6-6.3-6.7c-0.6,0-1-0.5-1-1.1l0,0c0-0.6,0.5-1.1,1-1.1h16.5
			c0.6,0,1,0.5,1,1.1v0c0,0.6-0.4,1-1,1.1c-5,0.2-6,1.6-6,6.7v21.7c0,12.3-9.3,19.3-23.2,19.3c-14.6,0-22.4-7.1-22.4-19.9v-22
			c0-4.5-1.1-5.8-5.5-5.9c-0.6,0-1-0.5-1-1.1v0C261.8,318,262.3,317.6,262.9,317.6z"/>
		<path class="st0" d="M333.6,353.4L333.6,353.4c0.5,0,1,0.4,1.2,0.9c2.1,6.6,6.7,10.4,13,10.4c5.6,0,9.5-3.4,9.5-8.1
			c0-11-24.2-15.3-24.2-28.9c0-6.7,5.8-11.4,14-11.4c2.5,0,4.4,0.3,5.9,0.6c1.5,0.3,2.8,0.6,4.1,0.6c0.8,0,1.3-0.2,1.9-0.6
			c0.2-0.2,0.5-0.3,0.8-0.3h0.4c0.6,0,1.1,0.5,1.2,1.1l1.3,9.7c0.1,0.7-0.5,1.4-1.2,1.4h-0.1c-0.5,0-0.9-0.3-1.1-0.8
			c-2.4-5.7-7-9.2-12.2-9.2c-4.9,0-7.5,3-7.5,6.4c0,10.5,24.2,13.6,24.2,28.7c0,8.1-6.7,13.5-16.5,13.5c-5.8,0-8.1-1.4-10.3-1.4
			c-0.8,0-1.3,0.2-1.8,0.6c-0.2,0.2-0.5,0.3-0.7,0.3h-0.3c-0.6,0-1.1-0.5-1.2-1.1l-1.6-11.1C332.3,354.1,332.8,353.4,333.6,353.4z"
			/>
		<path class="st0" d="M480.2,355.2c0,6.8,1,8.6,6.6,8.8c0.7,0,1.2,0.6,1.2,1.2l0,0c0,0.7-0.5,1.3-1.2,1.3h-22.3
			c-0.7,0-1.2-0.6-1.2-1.3v0c0-0.7,0.5-1.2,1.2-1.2c4.8-0.3,5.8-2.6,5.8-7.1v-38.3c0-4.7-1.5-6.4-5.8-6.7c-0.7,0-1.2-0.6-1.2-1.3
			l0,0c0-0.7,0.6-1.3,1.2-1.3h40c0.9,0,1.7,0.8,1.7,1.7v8.5c0,0.7-0.6,1.3-1.3,1.3h0c-0.6,0-1.2-0.5-1.3-1.2
			c-0.6-5.2-2.4-6.2-9.3-6.2h-14.2v20.3h14.2c5.1,0,6.5-0.8,7.2-4.8c0.1-0.6,0.6-1.1,1.3-1.1h0c0.7,0,1.3,0.6,1.3,1.3v14.3
			c0,0.7-0.6,1.3-1.3,1.3h0c-0.6,0-1.2-0.5-1.3-1.1c-0.7-4.7-2.2-5.8-7.6-5.8h-13.7V355.2z"/>
		<path class="st0" d="M547,317.6c0.9,0,1.7,0.6,2,1.4l14.1,38.5c2,5.5,2.8,6.7,6.7,6.9c0.5,0,1,0.5,1,1v0c0,0.6-0.5,1-1,1h-20.3
			c-0.6,0-1-0.5-1-1l0,0c0-0.6,0.4-1,1-1c5.1-0.1,6.6-0.7,6.6-2.8c0-0.8-0.3-2.1-1.1-4.1l-3.6-9.5h-17.2l-3.7,10.2
			c-0.5,1.5-0.8,2.4-0.8,3.2c0,2.1,1.3,3.1,6.5,3c0.6,0,1,0.5,1,1l0,0c0,0.6-0.4,1-1,1H520c-0.6,0-1-0.5-1-1v-0.1c0-0.5,0.4-1,1-1
			c4.2-0.2,5.2-1.3,7.1-6.9l13.8-38.5c0.3-0.9,1.1-1.4,2-1.4H547z M550,344.2l-7.2-19.4l-7.1,19.4H550z"/>
		<path class="st0" d="M629.6,365.4c-0.2,0.5-0.8,0.8-1.3,0.7c-0.5-0.1-0.9-0.2-1.6-0.2c-3.4,0-8.6,1.8-14.9,1.8
			c-17.5,0-26.9-10.4-26.9-24.1c0-13,8.6-25.9,27.5-25.9c8.2,0,14,2.5,16.1,2.5c0.5,0,0.8-0.1,1.1-0.3c0.2-0.2,0.4-0.2,0.7-0.2h0.1
			c0.7,0,1.3,0.6,1.3,1.3l0.3,10c0,0.8-0.6,1.4-1.3,1.4l0,0c-0.5,0-1-0.3-1.2-0.9c-2.9-7.3-8.8-11.3-16.9-11.3
			c-11.3,0-18.8,8.6-18.8,21.5c0,13.4,8.6,23.3,20.1,23.3c7.2,0,13.6-3.8,17.8-10.7c0.2-0.3,0.5-0.5,0.9-0.5l0,0
			c0.8,0,1.3,0.8,1,1.5L629.6,365.4z"/>
		<path class="st0" d="M649.8,365.4L649.8,365.4c0-0.6,0.5-1.1,1-1.1c5.4-0.1,6.8-1.3,6.8-5.4V325c0-4.8-2.2-5.3-6.8-5.3
			c-0.6,0-1-0.5-1-1.1l0,0c0-0.6,0.5-1.1,1-1.1h36.4c1.1,0,2,0.9,2.1,2l0.5,8.6c0,0.7-0.5,1.2-1.1,1.2h0c-0.5,0-1-0.4-1.1-0.9
			l-0.2-0.8c-1.5-6.5-2.8-6.6-7.7-6.6h-13.6v18.3h12c4.2,0,5.2-0.5,5.7-5c0.1-0.6,0.5-1,1.1-1l0,0c0.6,0,1.1,0.5,1.1,1.1v13.6
			c0,0.6-0.5,1.1-1.1,1.1h0c-0.5,0-1-0.4-1.1-1c-0.6-4.7-1.7-5.3-5.7-5.3h-12v14.3c0,4.9,0.6,5.7,4.6,5.7h8.6c7.5,0,9.2-1,11.2-8
			c0.1-0.5,0.6-0.8,1.1-0.8l0,0c0.7,0,1.2,0.6,1.1,1.3l-0.9,9.2c-0.1,1.1-1,1.9-2.1,1.9h-38.9C650.2,366.4,649.8,366,649.8,365.4z"
			/>
		<path class="st1" d="M449.2,364c-0.2-0.4-0.5-0.6-0.9-0.6c-3.7,0.2-7.6-0.2-11.6-1.5l-0.1,0c-2.8-0.9-5.4-2.2-7.9-3.9
			c-1.4-0.9-2.7-1.9-4-2.9c4.7-5.8,7.1-12.7,7-18.6c0-0.5-0.4-0.9-0.9-1c-3.3-0.8-6.7-1.1-9.8-0.8c-0.4,0-0.5,0.6-0.1,0.7
			c1.1,0.4,2.1,0.9,3.1,1.5c1.2,0.7,2,1.9,2.2,3.3c0.5,4.4-1.1,8.9-4.3,12.9c-9.5-7.4-17.9-16.1-25.1-25.7c-0.4-0.5-0.7-1-1-1.6
			c-2.5-4.9-0.5-11,4.6-13.6c5.1-2.6,11.2-0.8,13.7,4.1c0.9,1.7,1.2,3.7,1,5.5c-0.1,0.5,0.6,0.7,0.9,0.2c1.7-3.8,2-7.8,0.6-11.5
			c-0.1-0.2-0.1-0.3-0.2-0.5c-0.2-0.4-0.5-0.7-0.9-0.8c-6-1.8-12.7-1.3-18.5,1c-2.4,1-4.6,2.2-6.3,4.3c-1.5,1.8-2.5,4.1-2.8,6.5
			c-0.1,0.5-0.1,1.1-0.1,1.6c0,3.9,1.7,7.4,4.5,9.8c-6.7,4.4-12.5,12.1-10.7,20.6c1,4.8,4.6,8.4,9,10.4c4.9,2.2,10.4,2.6,15.6,1.7
			c2.6-0.4,5.1-1.2,7.6-2.2c1.2-0.5,2.3-1,3.4-1.6c0.3-0.2,3.3-2.2,3.4-2.1c2.1,1.4,4.2,2.8,6.4,4.2c5.5,3.4,13.4,4.4,21.4,2.1
			C449.1,365.4,449.5,364.7,449.2,364z M417.9,357.4c-0.4,0.3-0.8,0.7-1.3,1c-1.1,0.8-2.2,1.4-3.3,1.9c-0.3,0.1-0.6,0.3-0.8,0.4
			c-8.3,3.7-17.4,2.1-21.9-4.2c-3.7-5.3-3.2-12.6,0.8-18.7c0,0,0,0,0,0.1c0.7-1,1.6-2,2.5-3C400.9,343.2,409.1,350.9,417.9,357.4z"
			/>
	</g>
	<g>
		<path class="st2" d="M125.8,432.4c-0.5-0.2-0.9-0.3-1.5-0.3c-2,0-5.1,1-8.9,1c-10.4,0-16.1-6.1-16.1-14.1
			c0-7.6,5.1-15.2,16.4-15.2c4.9,0,8.3,1.5,9.6,1.5c0.4,0,0.6-0.1,0.8-0.3h1.1l0.2,7.4h-1.3c-1.7-4.6-5.3-7.1-10.2-7.1
			c-6.7,0-11.2,5-11.2,12.6c0,7.8,5.1,13.6,12,13.6c4.4,0,8.3-2.3,10.8-6.6h1.3L125.8,432.4z"/>
		<path class="st2" d="M139.3,432.4v-1.2c3.6,0,4.3-0.3,4.3-3.8v-17.7c0-3-0.3-3.9-4.3-3.8v-1.2H154v1.2c-4.8,0-5.4,0.2-5.4,3.5
			v18.9c0,1.8,0.4,2.2,2.4,2.2h4.6c3.8,0,4.1-0.2,7.4-4.7h1.3l-3.4,6.8H139.3z"/>
		<path class="st2" d="M174,404.6h12.5v1.2c-3,0-3.8,0.7-3.8,3.8v17.4c0,3.4,0.6,4.3,3.8,4.2v1.2H174v-1.2c3.5,0.1,3.7-1.3,3.7-3.8
			v-18.2c0-2.4-0.6-3.4-3.7-3.4V404.6z M177.2,401.6l2.1-6.5h4.9l-5.9,6.5H177.2z"/>
		<path class="st2" d="M203.5,409.7v17.2c0,3.5,0.4,4.6,4.5,4.4v1.2h-10.7v-1.2c3.2,0.1,3.8-0.9,3.8-3.8v-20.1
			c-1.1-0.9-2.1-1.3-3.8-1.4v-1.2h8.1l20,21.1v-16c0-3.4-0.5-3.9-4.4-3.8v-1.2h10.8v1.2c-3,0-3.9,0.5-3.9,3.9v23h-2.4L203.5,409.7z"
			/>
		<path class="st2" d="M242.6,404.6H255v1.2c-3,0-3.8,0.7-3.8,3.8v17.4c0,3.4,0.6,4.3,3.8,4.2v1.2h-12.5v-1.2
			c3.5,0.1,3.7-1.3,3.7-3.8v-18.2c0-2.4-0.6-3.4-3.7-3.4V404.6z"/>
		<path class="st2" d="M293.5,432.4c-0.5-0.2-0.9-0.3-1.5-0.3c-2,0-5.1,1-8.9,1c-10.4,0-16.1-6.1-16.1-14.1
			c0-7.6,5.1-15.2,16.4-15.2c4.9,0,8.3,1.5,9.6,1.5c0.4,0,0.6-0.1,0.8-0.3h1.1l0.2,7.4h-1.3c-1.7-4.6-5.3-7.1-10.2-7.1
			c-6.7,0-11.2,5-11.2,12.6c0,7.8,5.1,13.6,12,13.6c4.4,0,8.3-2.3,10.8-6.6h1.3L293.5,432.4z"/>
		<path class="st2" d="M306.1,431.2c3,0,3.6-0.5,4.8-4L319,405l-0.4-1.1h5l8.7,23.3c1.3,3.5,1.7,4,4.6,4v1.2h-13.3v-1.2
			c3.5,0,4.5-0.4,4.5-1.7c0-0.4-0.2-1.2-0.6-2.4l-2.1-5.5h-10.2l-2.2,6c-0.3,0.9-0.4,1.4-0.4,1.9c0,1.3,0.9,1.9,4.5,1.7v1.2h-10.9
			V431.2z M324.6,419.4l-4.3-11.3l-4.3,11.3H324.6z"/>
		<path class="st2" d="M388.9,431.2c3,0,3.6-0.5,4.8-4l8.1-22.2l-0.4-1.1h5l8.7,23.3c1.3,3.5,1.7,4,4.6,4v1.2h-13.3v-1.2
			c3.5,0,4.5-0.4,4.5-1.7c0-0.4-0.2-1.2-0.6-2.4l-2.1-5.5H398l-2.2,6c-0.3,0.9-0.4,1.4-0.4,1.9c0,1.3,0.9,1.9,4.5,1.7v1.2h-10.9
			V431.2z M407.4,419.4l-4.3-11.3l-4.3,11.3H407.4z"/>
		<path class="st2" d="M455.1,432.4c-0.5-0.2-0.9-0.3-1.5-0.3c-2,0-5.1,1-8.9,1c-10.4,0-16.1-6.1-16.1-14.1
			c0-7.6,5.1-15.2,16.4-15.2c4.9,0,8.3,1.5,9.6,1.5c0.4,0,0.6-0.1,0.8-0.3h1.1l0.2,7.4h-1.3c-1.7-4.6-5.3-7.1-10.2-7.1
			c-6.7,0-11.2,5-11.2,12.6c0,7.8,5.1,13.6,12,13.6c4.4,0,8.3-2.3,10.8-6.6h1.3L455.1,432.4z"/>
		<path class="st2" d="M467.7,431.2c3,0,3.6-0.5,4.8-4l8.1-22.2l-0.4-1.1h5l8.7,23.3c1.3,3.5,1.7,4,4.6,4v1.2h-13.3v-1.2
			c3.5,0,4.5-0.4,4.5-1.7c0-0.4-0.2-1.2-0.6-2.4l-2.1-5.5h-10.2l-2.2,6c-0.3,0.9-0.4,1.4-0.4,1.9c0,1.3,0.9,1.9,4.5,1.7v1.2h-10.9
			V431.2z M486.2,419.4l-4.3-11.3l-4.3,11.3H486.2z"/>
		<path class="st2" d="M512.6,409.7c0-3.3-0.9-4-4.3-3.9v-1.2c1.3,0,5.1-0.2,7-0.3c2.4-0.1,4.7-0.1,6.4-0.1c6.8,0,11.6,1.2,14.4,3.9
			c2.8,2.8,3.8,6.2,3.8,9.5c0,6.6-4.6,14.7-17.7,14.7h-13.9v-1.2c3.8,0,4.3-0.6,4.3-3.6V409.7z M517.6,428c0,2.8,0.4,3.2,3.3,3.2
			c5.4,0,8.1-1.2,10.2-3.2c2.7-2.7,3.5-6.5,3.5-9.6c0-3.2-0.7-6.8-3.4-9.6c-2.2-2.2-5.1-3.3-10.3-3.3c-0.8,0-2.1,0-3.3,0.1V428z"/>
		<path class="st2" d="M551.1,432.4v-1.2c3.6,0,4.5-0.6,4.5-3.1v-19.3c0-3-1.5-3-4.5-3v-1.2H574l0.4,6.7h-1.2l-0.2-0.9
			c-0.9-3.7-1.6-3.8-4.5-3.8h-7.9V417h6.9c2.6,0,3.1-0.3,3.4-3.4h1.2v9h-1.2c-0.3-3.2-0.9-3.6-3.4-3.6h-6.9v8.1
			c0,2.8,0.4,3.2,2.6,3.2h5c4.5,0,5.4-0.6,6.6-5h1.2l-0.7,7H551.1z"/>
		<path class="st2" d="M585.5,431.2c2.8,0,3.6-0.5,3.8-4.4l1.1-16.5c0.3-4-0.2-4.6-2.8-4.6v-1.2h8.3l9.7,20.7l9.1-20.7h8.3v1.2
			c-2.5,0-3,0.5-2.9,2.6l1.6,20.4c0.2,2.3,1,2.5,3.7,2.5v1.2h-12.7v-1.2c3.7,0,4.3-0.9,3.9-5.6l-1.2-16.5h-0.1L605,432.4h-1.5
			L593,409.7h-0.1l-1.1,16.6c-0.3,4.8,0.7,4.8,3.7,5v1.2h-9.9V431.2z"/>
		<path class="st2" d="M636,404.6h12.5v1.2c-3,0-3.8,0.7-3.8,3.8v17.4c0,3.4,0.6,4.3,3.8,4.2v1.2H636v-1.2c3.5,0.1,3.7-1.3,3.7-3.8
			v-18.2c0-2.4-0.6-3.4-3.7-3.4V404.6z"/>
		<path class="st2" d="M658.6,431.2c3,0,3.6-0.5,4.8-4l8.1-22.2l-0.4-1.1h5l8.7,23.3c1.3,3.5,1.7,4,4.6,4v1.2h-13.3v-1.2
			c3.5,0,4.5-0.4,4.5-1.7c0-0.4-0.2-1.2-0.6-2.4l-2.1-5.5h-10.2l-2.2,6c-0.3,0.9-0.4,1.4-0.4,1.9c0,1.3,0.9,1.9,4.5,1.7v1.2h-10.9
			V431.2z M677.1,419.4l-4.3-11.3l-4.3,11.3H677.1z"/>
	</g>
	<g>
		<path class="st2" d="M229.8,474.8c0,3.5,0.5,4.3,3.9,4.3v1.2h-12.3v-1.2c2.9,0,3.4-1.1,3.4-3.5v-18.7c0-2.5-0.9-3.3-3.4-3.3v-1.2
			h21.3v5.6h-1.2c-0.2-3-1-3.6-4.7-3.6h-7v9.9h7c2.7,0,3.4-0.4,3.6-2.9h1.2v8.2h-1.2c-0.3-2.8-1-3.4-3.8-3.4h-6.8V474.8z"/>
		<path class="st2" d="M253.4,452.4h12.7v1.2c-3.3,0-3.9,0.7-3.9,3.8v12c0,6,4,8.7,9.6,8.7c5,0,9.6-2.1,9.6-8.8v-11.9
			c0-3.5-0.7-3.8-4.3-3.8v-1.2h10.8v1.2c-3.4,0-4.1,0.7-4.1,3.8v12.4c0,7-5.4,11.1-13.6,11.1c-8.5,0-13.1-4.1-13.1-11.4V457
			c0-2.7-0.7-3.4-3.8-3.4V452.4z"/>
		<path class="st2" d="M304.1,457.5v17.2c0,3.5,0.4,4.6,4.5,4.4v1.2h-10.7v-1.2c3.2,0.1,3.8-0.9,3.8-3.8v-20.1
			c-1.1-0.9-2.1-1.3-3.8-1.4v-1.2h8.1l20,21.1v-16c0-3.4-0.5-3.9-4.4-3.8v-1.2h10.8v1.2c-3,0-3.9,0.5-3.9,3.9v23h-2.4L304.1,457.5z"
			/>
		<path class="st2" d="M347,457.6c0-3.3-0.9-4-4.3-3.9v-1.2c1.3,0,5.1-0.2,7-0.3c2.4-0.1,4.7-0.1,6.4-0.1c6.8,0,11.6,1.2,14.4,3.9
			c2.8,2.8,3.8,6.2,3.8,9.5c0,6.6-4.6,14.7-17.7,14.7h-13.9v-1.2c3.8,0,4.3-0.6,4.3-3.6V457.6z M351.9,475.8c0,2.8,0.4,3.2,3.3,3.2
			c5.4,0,8.1-1.2,10.2-3.2c2.7-2.7,3.5-6.5,3.5-9.6c0-3.2-0.7-6.8-3.4-9.6c-2.2-2.2-5.1-3.3-10.3-3.3c-0.8,0-2.1,0-3.3,0.1V475.8z"
			/>
		<path class="st2" d="M382.6,479.1c3,0,3.6-0.5,4.8-4l8.1-22.2l-0.4-1.1h5l8.7,23.3c1.3,3.5,1.7,4,4.6,4v1.2h-13.3v-1.2
			c3.5,0,4.5-0.4,4.5-1.7c0-0.4-0.2-1.2-0.6-2.4l-2.1-5.5h-10.2l-2.2,6c-0.3,0.9-0.4,1.4-0.4,1.9c0,1.3,0.9,1.9,4.5,1.7v1.2h-10.9
			V479.1z M401.1,467.2l-4.3-11.3l-4.3,11.3H401.1z"/>
		<path class="st2" d="M448.7,480.3c-0.5-0.2-0.9-0.3-1.5-0.3c-2,0-5.1,1-8.9,1c-10.4,0-16.1-6.1-16.1-14.1
			c0-7.6,5.1-15.2,16.4-15.2c4.9,0,8.3,1.5,9.6,1.5c0.4,0,0.6-0.1,0.8-0.3h1.1l0.2,7.4h-1.3c-1.7-4.6-5.3-7.1-10.2-7.1
			c-6.7,0-11.2,5-11.2,12.6c0,7.8,5.1,13.6,12,13.6c4.4,0,8.3-2.3,10.8-6.6h1.3L448.7,480.3z"/>
		<path class="st2" d="M462.7,452.4h12.5v1.2c-3,0-3.8,0.7-3.8,3.8v17.4c0,3.4,0.6,4.3,3.8,4.2v1.2h-12.5v-1.2
			c3.5,0.1,3.7-1.3,3.7-3.8V457c0-2.4-0.6-3.4-3.7-3.4V452.4z"/>
		<path class="st2" d="M503.7,451.7c9.7,0,16.3,5.8,16.3,14.1c0,8.1-6.4,15.1-16.5,15.1c-9.4,0-16.2-5.9-16.2-13.9
			C487.4,458.2,494.2,451.7,503.7,451.7z M504.2,479.6c6.2,0,10.4-5.1,10.4-12.6c0-8.1-4.7-13.8-11.3-13.8
			c-6.4,0-10.6,4.9-10.6,12.8C492.8,474.9,498.5,479.6,504.2,479.6z M500.7,449.4l2.1-6.5h4.9l-5.9,6.5H500.7z"/>
		<path class="st2" d="M538,457.5v17.2c0,3.5,0.4,4.6,4.5,4.4v1.2h-10.7v-1.2c3.2,0.1,3.8-0.9,3.8-3.8v-20.1
			c-1.1-0.9-2.1-1.3-3.8-1.4v-1.2h8.1l20,21.1v-16c0-3.4-0.5-3.9-4.4-3.8v-1.2h10.8v1.2c-3,0-3.9,0.5-3.9,3.9v23h-2.4L538,457.5z"/>
	</g>
	<rect x="358" y="419" class="st2" width="10" height="3.2"/>
</g>
</svg>
